<svg width="30" height="30" viewBox="0 0 30 30" fill="none" xmlns="http://www.w3.org/2000/svg">
<mask id="path-1-inside-1_15_1865" fill="white">
<path fill-rule="evenodd" clip-rule="evenodd" d="M5.07962 26.0936C4.89813 25.4148 4.13194 24.8351 3.15663 24.7062C1.97313 24.5499 0.929851 25.1167 0.826414 25.9722C0.75739 26.5431 1.1243 27.0983 1.72776 27.451C1.69555 27.5471 1.67253 27.6479 1.65987 27.7527C1.55922 28.5852 2.15027 29.3489 2.98002 29.4585C3.47281 29.5236 3.93896 29.3434 4.25739 29.0118C4.3294 29.0326 4.4038 29.0482 4.48022 29.0583C5.30997 29.1679 6.0642 28.5819 6.16485 27.7494C6.25571 26.9979 5.78288 26.3024 5.07962 26.0936Z"/>
</mask>
<path d="M5.07962 26.0936L4.11356 26.3519L4.25819 26.8929L4.79497 27.0522L5.07962 26.0936ZM3.15663 24.7062L3.2876 23.7148L3.15663 24.7062ZM0.826414 25.9722L1.81918 26.0922L0.826414 25.9722ZM1.72776 27.451L2.67587 27.769L2.93441 26.998L2.23236 26.5877L1.72776 27.451ZM1.65987 27.7527L0.667098 27.6326L0.667098 27.6326L1.65987 27.7527ZM2.98002 29.4585L2.84904 30.4499H2.84904L2.98002 29.4585ZM4.25739 29.0118L4.53408 28.0509L3.95419 27.8839L3.53617 28.3191L4.25739 29.0118ZM4.48022 29.0583L4.61119 28.0669L4.61119 28.0669L4.48022 29.0583ZM6.16485 27.7494L7.15762 27.8695V27.8695L6.16485 27.7494ZM6.04568 25.8353C5.72539 24.6374 4.51341 23.8768 3.2876 23.7148L3.02566 25.6976C3.75048 25.7934 4.07087 26.1923 4.11356 26.3519L6.04568 25.8353ZM3.2876 23.7148C2.51086 23.6122 1.73726 23.7398 1.10911 24.0811C0.481348 24.4221 -0.0661797 25.0236 -0.166357 25.8522L1.81918 26.0922C1.82244 26.0653 1.84827 25.9556 2.06388 25.8385C2.27911 25.7215 2.61889 25.6439 3.02566 25.6976L3.2876 23.7148ZM-0.166357 25.8522C-0.300368 26.9606 0.418359 27.844 1.22315 28.3144L2.23236 26.5877C2.04737 26.4795 1.93292 26.3597 1.87347 26.2643C1.81705 26.1739 1.816 26.1186 1.81918 26.0922L-0.166357 25.8522ZM0.779647 27.1331C0.725954 27.2932 0.68793 27.4603 0.667098 27.6326L2.65264 27.8727C2.65714 27.8355 2.66514 27.801 2.67587 27.769L0.779647 27.1331ZM0.667098 27.6326C0.500884 29.0074 1.47429 30.2683 2.84904 30.4499L3.11099 28.4671C2.82625 28.4295 2.61755 28.1629 2.65264 27.8727L0.667098 27.6326ZM2.84904 30.4499C3.66911 30.5582 4.44823 30.2567 4.97861 29.7045L3.53617 28.3191C3.4297 28.43 3.2765 28.489 3.11099 28.4671L2.84904 30.4499ZM4.61119 28.0669C4.58428 28.0634 4.55858 28.0579 4.53408 28.0509L3.9807 29.9728C4.10023 30.0072 4.22332 30.033 4.34925 30.0497L4.61119 28.0669ZM5.17208 27.6294C5.13802 27.9111 4.88734 28.1034 4.61119 28.0669L4.34924 30.0497C5.7326 30.2324 6.99038 29.2527 7.15762 27.8695L5.17208 27.6294ZM4.79497 27.0522C5.03797 27.1244 5.20352 27.3694 5.17208 27.6294L7.15762 27.8695C7.30791 26.6264 6.5278 25.4805 5.36427 25.135L4.79497 27.0522Z" fill="black" mask="url(#path-1-inside-1_15_1865)"/>
<mask id="path-3-inside-2_15_1865" fill="white">
<path fill-rule="evenodd" clip-rule="evenodd" d="M11.1858 26.8667C8.90899 26.5607 7.16144 24.9426 6.86569 23.0404C6.38564 23.1783 5.87243 23.2529 5.33914 23.2529C2.65673 23.2529 0.482207 21.365 0.482207 19.0362C0.482207 18.1405 0.803848 17.31 1.35232 16.6271C0.521287 15.7726 0 14.5431 0 13.1766C0 10.5957 1.85948 8.50351 4.15328 8.50351C4.40016 8.50351 4.642 8.52774 4.87704 8.57422C4.95824 4.2471 8.58402 0.763672 13.0449 0.763672C16.7859 0.763672 19.9396 3.21355 20.9079 6.55639C21.611 6.32764 22.3661 6.20337 23.1521 6.20337C26.934 6.20337 29.9999 9.08018 29.9999 12.6289C29.9999 15.0475 28.5759 17.1539 26.4717 18.2503C26.7786 19.0035 26.9481 19.8302 26.9481 20.6975C26.9481 24.2059 24.1742 27.05 20.7525 27.05C18.8535 27.05 17.154 26.174 16.0176 24.7946C15.1329 26.2678 13.2434 27.1433 11.1858 26.8667Z"/>
</mask>
<path d="M6.86569 23.0404L7.85382 22.8868L7.6796 21.7662L6.58964 22.0793L6.86569 23.0404ZM11.1858 26.8667L11.3191 25.8756L11.1858 26.8667ZM1.35232 16.6271L2.13199 17.2533L2.68572 16.5639L2.0692 15.9299L1.35232 16.6271ZM4.87704 8.57422L4.68307 9.55523L5.85447 9.78684L5.87687 8.59298L4.87704 8.57422ZM20.9079 6.55639L19.9474 6.83462L20.2349 7.82697L21.2173 7.50732L20.9079 6.55639ZM26.4717 18.2503L26.0096 17.3635L25.2019 17.7843L25.5456 18.6277L26.4717 18.2503ZM16.0176 24.7946L16.7893 24.1587L15.8891 23.0661L15.1603 24.2798L16.0176 24.7946ZM5.87756 23.194C6.25222 25.6038 8.41109 27.5027 11.0526 27.8578L11.3191 25.8756C9.40689 25.6186 8.07065 24.2815 7.85382 22.8868L5.87756 23.194ZM5.33914 24.2529C5.96581 24.2529 6.57194 24.1652 7.14174 24.0016L6.58964 22.0793C6.19934 22.1914 5.77905 22.2529 5.33914 22.2529V24.2529ZM-0.517793 19.0362C-0.517793 22.0453 2.24183 24.2529 5.33914 24.2529V22.2529C3.07163 22.2529 1.48221 20.6847 1.48221 19.0362H-0.517793ZM0.572647 16.001C-0.105609 16.8455 -0.517793 17.8931 -0.517793 19.0362H1.48221C1.48221 18.3879 1.71331 17.7746 2.13199 17.2533L0.572647 16.001ZM-1 13.1766C-1 14.7964 -0.382066 16.2781 0.635436 17.3243L2.0692 15.9299C1.42464 15.2672 1 14.2899 1 13.1766H-1ZM4.15328 7.50351C1.1996 7.50351 -1 10.1576 -1 13.1766H1C1 11.0339 2.51937 9.50351 4.15328 9.50351V7.50351ZM5.07102 7.59321C4.77263 7.53421 4.46583 7.50351 4.15328 7.50351V9.50351C4.33448 9.50351 4.51137 9.52128 4.68307 9.55523L5.07102 7.59321ZM13.0449 -0.236328C8.06209 -0.236328 3.96906 3.66071 3.87722 8.55546L5.87687 8.59298C5.94741 4.83349 9.10595 1.76367 13.0449 1.76367V-0.236328ZM21.8684 6.27816C20.7753 2.50444 17.2276 -0.236328 13.0449 -0.236328V1.76367C16.3443 1.76367 19.1039 3.92266 19.9474 6.83462L21.8684 6.27816ZM23.1521 5.20337C22.2603 5.20337 21.4008 5.34442 20.5985 5.60545L21.2173 7.50732C21.8212 7.31086 22.4719 7.20337 23.1521 7.20337V5.20337ZM30.9999 12.6289C30.9999 8.46889 27.4254 5.20337 23.1521 5.20337V7.20337C26.4427 7.20337 28.9999 9.69146 28.9999 12.6289H30.9999ZM26.9337 19.1372C29.3337 17.8866 30.9999 15.4579 30.9999 12.6289H28.9999C28.9999 14.637 27.818 16.4212 26.0096 17.3635L26.9337 19.1372ZM27.9481 20.6975C27.9481 19.699 27.7528 18.7443 27.3977 17.873L25.5456 18.6277C25.8044 19.2627 25.9481 19.9614 25.9481 20.6975H27.9481ZM20.7525 28.05C24.7499 28.05 27.9481 24.7344 27.9481 20.6975H25.9481C25.9481 23.6773 23.5985 26.05 20.7525 26.05V28.05ZM15.2458 25.4305C16.5607 27.0265 18.5371 28.05 20.7525 28.05V26.05C19.1698 26.05 17.7474 25.3215 16.7893 24.1587L15.2458 25.4305ZM11.0526 27.8578C13.4492 28.18 15.7568 27.1713 16.8749 25.3094L15.1603 24.2798C14.509 25.3643 13.0376 26.1067 11.3191 25.8756L11.0526 27.8578Z" fill="black" mask="url(#path-3-inside-2_15_1865)"/>
<path d="M8.64699 15.2367C8.64699 16.3535 7.88054 17.1896 7.01405 17.1896C6.14755 17.1896 5.3811 16.3535 5.3811 15.2367C5.3811 14.12 6.14755 13.2839 7.01405 13.2839C7.88054 13.2839 8.64699 14.12 8.64699 15.2367Z" fill="#D9D9D9" stroke="black" stroke-width="0.5"/>
<path d="M23.0557 15.237C23.0557 16.3537 22.2892 17.1898 21.4227 17.1898C20.5562 17.1898 19.7898 16.3537 19.7898 15.237C19.7898 14.1203 20.5562 13.2842 21.4227 13.2842C22.2892 13.2842 23.0557 14.1203 23.0557 15.237Z" fill="#D9D9D9" stroke="black" stroke-width="0.5"/>
<path d="M15.8513 15.2367C15.8513 16.3535 15.0849 17.1896 14.2184 17.1896C13.3519 17.1896 12.5854 16.3535 12.5854 15.2367C12.5854 14.12 13.3519 13.2839 14.2184 13.2839C15.0849 13.2839 15.8513 14.12 15.8513 15.2367Z" fill="#D9D9D9" stroke="black" stroke-width="0.5"/>
</svg>
