<svg width="110" height="25" viewBox="0 0 110 25" fill="none" xmlns="http://www.w3.org/2000/svg">
<rect width="110" height="25" rx="10" fill="#F2F1F1"/>
<path d="M14.1442 16.3381V8.79545H16.0511V16.3381H14.1442ZM11.3263 13.5202V11.6133H18.869V13.5202H11.3263Z" fill="#30B4FE"/>
<path d="M34.2405 10.9102H31.9074C31.8648 10.6083 31.7778 10.3402 31.6464 10.1058C31.515 9.8679 31.3463 9.66548 31.1404 9.49858C30.9344 9.33168 30.6965 9.20383 30.4266 9.11506C30.1602 9.02628 29.8708 8.98189 29.5583 8.98189C28.9937 8.98189 28.5019 9.12216 28.0828 9.4027C27.6638 9.67969 27.3389 10.0845 27.108 10.6172C26.8772 11.1463 26.7618 11.7891 26.7618 12.5455C26.7618 13.3232 26.8772 13.9766 27.108 14.5057C27.3424 15.0348 27.6691 15.4343 28.0882 15.7042C28.5072 15.9741 28.9919 16.109 29.5423 16.109C29.8513 16.109 30.1372 16.0682 30.3999 15.9865C30.6663 15.9048 30.9024 15.7859 31.1084 15.6296C31.3144 15.4698 31.4848 15.2763 31.6198 15.049C31.7583 14.8217 31.8541 14.5625 31.9074 14.2713L34.2405 14.282C34.1801 14.7827 34.0292 15.2656 33.7877 15.7308C33.5498 16.1925 33.2284 16.6062 32.8236 16.9719C32.4223 17.3342 31.9429 17.6218 31.3854 17.8349C30.8314 18.0444 30.2046 18.1491 29.5051 18.1491C28.532 18.1491 27.662 17.929 26.895 17.4886C26.1315 17.0483 25.5278 16.4109 25.0839 15.5763C24.6436 14.7418 24.4234 13.7315 24.4234 12.5455C24.4234 11.3558 24.6471 10.3438 25.0945 9.50923C25.542 8.67472 26.1492 8.03906 26.9163 7.60227C27.6833 7.16193 28.5463 6.94176 29.5051 6.94176C30.1372 6.94176 30.7231 7.03054 31.2629 7.2081C31.8062 7.38565 32.2874 7.64489 32.7064 7.98579C33.1254 8.32315 33.4664 8.73686 33.7291 9.22692C33.9955 9.71697 34.1659 10.2781 34.2405 10.9102Z" fill="#44A9B1"/>
<path d="M45.9193 12.5455C45.9193 13.7351 45.6938 14.7472 45.2428 15.5817C44.7954 16.4162 44.1846 17.0536 43.4104 17.494C42.6398 17.9308 41.7733 18.1491 40.811 18.1491C39.8415 18.1491 38.9715 17.929 38.2009 17.4886C37.4303 17.0483 36.8213 16.4109 36.3738 15.5763C35.9264 14.7418 35.7027 13.7315 35.7027 12.5455C35.7027 11.3558 35.9264 10.3438 36.3738 9.50923C36.8213 8.67472 37.4303 8.03906 38.2009 7.60227C38.9715 7.16193 39.8415 6.94176 40.811 6.94176C41.7733 6.94176 42.6398 7.16193 43.4104 7.60227C44.1846 8.03906 44.7954 8.67472 45.2428 9.50923C45.6938 10.3438 45.9193 11.3558 45.9193 12.5455ZM43.5809 12.5455C43.5809 11.7749 43.4655 11.125 43.2346 10.5959C43.0074 10.0668 42.686 9.66548 42.2705 9.39205C41.855 9.11861 41.3685 8.98189 40.811 8.98189C40.2535 8.98189 39.767 9.11861 39.3515 9.39205C38.936 9.66548 38.6128 10.0668 38.382 10.5959C38.1547 11.125 38.0411 11.7749 38.0411 12.5455C38.0411 13.3161 38.1547 13.9659 38.382 14.495C38.6128 15.0241 38.936 15.4254 39.3515 15.6989C39.767 15.9723 40.2535 16.109 40.811 16.109C41.3685 16.109 41.855 15.9723 42.2705 15.6989C42.686 15.4254 43.0074 15.0241 43.2346 14.495C43.4655 13.9659 43.5809 13.3161 43.5809 12.5455ZM89.7368 8.99254V7.09091H98.6963V8.99254H95.3564V18H93.0766V8.99254H89.7368Z" fill="#E9877A"/>
<path d="M56.7525 7.09091V18H54.7603L50.0142 11.1339H49.9343V18H47.6278V7.09091H49.652L54.3608 13.9517H54.4567V7.09091H56.7525Z" fill="#E1C86B"/>
<path d="M67.7828 7.09091V18H65.7906L61.0445 11.1339H60.9646V18H58.6581V7.09091H60.6823L65.3911 13.9517H65.4869V7.09091H67.7828Z" fill="#8F979B"/>
<path d="M69.6884 18V7.09091H77.0392V8.99254H71.9949V11.592H76.661V13.4936H71.9949V16.0984H77.0605V18H69.6884Z" fill="#EA8E82"/>
<path d="M88.4983 10.9102H86.1652C86.1226 10.6083 86.0356 10.3402 85.9042 10.1058C85.7728 9.8679 85.6041 9.66548 85.3982 9.49858C85.1922 9.33168 84.9543 9.20383 84.6844 9.11506C84.4181 9.02628 84.1286 8.98189 83.8161 8.98189C83.2515 8.98189 82.7597 9.12216 82.3406 9.4027C81.9216 9.67969 81.5967 10.0845 81.3659 10.6172C81.135 11.1463 81.0196 11.7891 81.0196 12.5455C81.0196 13.3232 81.135 13.9766 81.3659 14.5057C81.6002 15.0348 81.9269 15.4343 82.346 15.7042C82.765 15.9741 83.2497 16.109 83.8002 16.109C84.1091 16.109 84.395 16.0682 84.6578 15.9865C84.9241 15.9048 85.1602 15.7859 85.3662 15.6296C85.5722 15.4698 85.7426 15.2763 85.8776 15.049C86.0161 14.8217 86.1119 14.5625 86.1652 14.2713L88.4983 14.282C88.4379 14.7827 88.287 15.2656 88.0455 15.7308C87.8076 16.1925 87.4862 16.6062 87.0814 16.9719C86.6801 17.3342 86.2007 17.6218 85.6432 17.8349C85.0892 18.0444 84.4624 18.1491 83.7629 18.1491C82.7899 18.1491 81.9198 17.929 81.1528 17.4886C80.3893 17.0483 79.7856 16.4109 79.3417 15.5763C78.9014 14.7418 78.6812 13.7315 78.6812 12.5455C78.6812 11.3558 78.9049 10.3438 79.3524 9.50923C79.7998 8.67472 80.407 8.03906 81.1741 7.60227C81.9411 7.16193 82.8041 6.94176 83.7629 6.94176C84.395 6.94176 84.9809 7.03054 85.5207 7.2081C86.064 7.38565 86.5452 7.64489 86.9642 7.98579C87.3833 8.32315 87.7242 8.73686 87.9869 9.22692C88.2533 9.71697 88.4237 10.2781 88.4983 10.9102Z" fill="#AC89A3"/>
</svg>
