<svg width="33" height="28" viewBox="0 0 33 28" fill="none" xmlns="http://www.w3.org/2000/svg">
<mask id="path-1-inside-1_1_155" fill="white">
<path fill-rule="evenodd" clip-rule="evenodd" d="M2.3033 13.3951L5.60176 16.6936L16.0919 27.1837L16.2084 27.3002L29.9969 13.5117C32.9258 10.5827 32.9258 5.83399 29.9969 2.90505C27.0679 -0.0238774 22.3192 -0.0238761 19.3903 2.90506L16.2084 6.08695L12.9099 2.7885C9.98097 -0.140436 5.23223 -0.140436 2.3033 2.7885C-0.625631 5.71743 -0.625631 10.4662 2.3033 13.3951Z"/>
</mask>
<path d="M16.2084 27.3002L15.5013 28.0073L16.2084 28.7144L16.9155 28.0073L16.2084 27.3002ZM16.2084 6.08695L15.5013 6.79406L16.2084 7.50117L16.9155 6.79406L16.2084 6.08695ZM12.9099 2.7885L13.617 2.08139L12.9099 2.7885ZM6.30887 15.9864L3.01041 12.688L1.59619 14.1022L4.89465 17.4007L6.30887 15.9864ZM16.799 26.4766L6.30887 15.9864L4.89465 17.4007L15.3848 27.8908L16.799 26.4766ZM16.9155 26.5931L16.799 26.4766L15.3848 27.8908L15.5013 28.0073L16.9155 26.5931ZM29.2898 12.8045L15.5013 26.5931L16.9155 28.0073L30.704 14.2188L29.2898 12.8045ZM29.2898 3.61216C31.8282 6.15057 31.8282 10.2661 29.2898 12.8045L30.704 14.2188C34.0234 10.8993 34.0234 5.5174 30.704 2.19795L29.2898 3.61216ZM20.0974 3.61216C22.6358 1.07375 26.7513 1.07375 29.2898 3.61216L30.704 2.19795C27.3845 -1.12151 22.0026 -1.12151 18.6832 2.19795L20.0974 3.61216ZM16.9155 6.79406L20.0974 3.61216L18.6832 2.19795L15.5013 5.37985L16.9155 6.79406ZM12.2028 3.4956L15.5013 6.79406L16.9155 5.37985L13.617 2.08139L12.2028 3.4956ZM3.01041 3.4956C5.54882 0.957195 9.66439 0.957195 12.2028 3.4956L13.617 2.08139C10.2976 -1.23807 4.91565 -1.23807 1.59619 2.08139L3.01041 3.4956ZM3.01041 12.688C0.472 10.1496 0.472 6.03401 3.01041 3.4956L1.59619 2.08139C-1.72326 5.40085 -1.72326 10.7827 1.59619 14.1022L3.01041 12.688Z" fill="black" mask="url(#path-1-inside-1_1_155)"/>
</svg>
