<svg width="68" height="32" viewBox="0 0 68 32" fill="none" xmlns="http://www.w3.org/2000/svg">
<path d="M40.7217 12.1055L40.7486 12.0963L40.7744 12.0841C40.997 11.9786 41.4099 11.846 41.9502 11.7085C42.4802 11.5735 43.1022 11.4413 43.7234 11.3302C44.9982 11.1022 46.035 12.062 46.035 13.4733V13.4787V13.4842V13.4897V13.4953V13.5009V13.5066V13.5123V13.5181V13.524V13.5299V13.5358V13.5418V13.5479V13.554V13.5602V13.5664V13.5727V13.5791V13.5855V13.5919V13.5984V13.605V13.6116V13.6182V13.625V13.6317V13.6385V13.6454V13.6523V13.6593V13.6664V13.6734V13.6806V13.6878V13.695V13.7023V13.7096V13.717V13.7244V13.7319V13.7395V13.7471V13.7547V13.7624V13.7701V13.7779V13.7858V13.7937V13.8016V13.8096V13.8176V13.8257V13.8338V13.842V13.8503V13.8585V13.8669V13.8752V13.8837V13.8921V13.9006V13.9092V13.9178V13.9265V13.9352V13.9439V13.9527V13.9616V13.9705V13.9794V13.9884V13.9974V14.0065V14.0156V14.0248V14.034V14.0432V14.0525V14.0618V14.0712V14.0807V14.0901V14.0996V14.1092V14.1188V14.1285V14.1381V14.1479V14.1576V14.1675V14.1773V14.1872V14.1972V14.2072V14.2172V14.2273V14.2374V14.2475V14.2577V14.268V14.2782V14.2885V14.2989V14.3093V14.3197V14.3302V14.3407V14.3513V14.3619V14.3725V14.3832V14.3939V14.4047V14.4155V14.4263V14.4372V14.4481V14.459V14.47V14.481V14.4921V14.5032V14.5143V14.5255V14.5367V14.548V14.5592V14.5706V14.5819V14.5933V14.6047V14.6162V14.6277V14.6392V14.6508V14.6624V14.6741V14.6857V14.6975V14.7092V14.721V14.7328V14.7446V14.7565V14.7685V14.7804V14.7924V14.8044V14.8165V14.8285V14.8407V14.8528V14.865V14.8772V14.8895V14.9017V14.9141V14.9264V14.9388V14.9512V14.9636V14.9761V14.9886V15.0011V15.0137V15.0263V15.0389V15.0515V15.0642V15.0769V15.0897V15.1025V15.1153V15.1281V15.141V15.1538V15.1668V15.1797V15.1927V15.2057V15.2187V15.2318V15.2449V15.258V15.2711V15.2843V15.2975V15.3107V15.324V15.3373V15.3506V15.3639V15.3772V15.3906V15.404V15.4175V15.4309V15.4444V15.4579V15.4715V15.485V15.4986V15.5122V15.5259V15.5395V15.5532V15.5669V15.5806V15.5944V15.6082V15.622V15.6358V15.6497V15.6635V15.6774V15.6913V15.7053V15.7192V15.7332V15.7472V15.7613V15.7753V15.7894V15.8035V15.8176V15.8317V15.8459V15.8601V15.8743V15.8885V15.9027V15.917V15.9312V15.9455V15.9599V15.9742V15.9885V16.0029V16.0173V16.0317V16.0462V16.0606V16.0751V16.0896V16.1041V16.1186V16.1331V16.1477V16.1622V16.1768V16.1914V16.2061V16.2207V16.2354V16.25V16.2647V16.2794V16.2942V16.3089V16.3237V16.3384V16.3532V16.368V16.3828V16.3976V16.4125V16.4274V16.4422V16.4571V16.472V16.4869V16.5019V16.5168V16.5318V16.5467V16.5617V16.5767V16.5917V16.6067V16.6218V16.6368V16.6519V16.6669V16.682V16.6971V16.7122V16.7273V16.7424V16.7576V16.7727V16.7879V16.8031V16.8182V16.8334V16.8486V16.8638V16.879V16.8943V16.9095V16.9248V16.94V16.9553V16.9706V16.9858V17.0011V17.0164V17.0317V17.047V17.0624V17.0777V17.093V17.1084V17.1237V17.1391V17.1545V17.1698V17.1852V17.2006V17.216V17.2314V17.2468V17.2622V17.2776V17.293V17.3085V17.3239V17.3393V17.3548V17.3702V17.3857V17.4011V17.4166V17.432V17.4475V17.463V17.4784V17.4939V17.5094V17.5249V17.5404V17.5559V17.5713V17.5868V17.6023V17.6178V17.6333V17.6488V17.6643V17.6798V17.6953V17.7108V17.7264V17.7419V17.7574V17.7729V17.7884V17.8039V17.8194V17.8349V17.8504V17.8659V17.8814V17.8969V17.9125V17.928V17.9435V17.959V17.9745V17.99V18.0055V18.021V18.0364V18.0519V18.0674V18.0829V18.0984V18.1139V18.1294V18.1448V18.1603V18.1758V18.1912V18.2067V18.2221V18.2376V18.253V18.2685V18.2839V18.2993V18.3148V18.3302V18.3456V18.361V18.3764V18.3918V18.4072V18.4226V18.438V18.4533V18.4687V18.4841V18.4994V18.5147V18.5301V18.5454V18.5607V18.5761V18.5914V18.6067V18.6219V18.6372V18.6525V18.6678V18.683V18.6983V18.7135V18.7287V18.7439V18.7592V18.7744V18.7895V18.8047V18.8199V18.835V18.8502V18.8653V18.8805V18.8956V18.9107V18.9258V18.9408V18.9559V18.971V18.986V19.001V19.0161V19.0311V19.0461V19.061V19.076V19.091V19.1059V19.1208V19.1357V19.1506V19.1655V19.1804V19.1953V19.2101V19.2249V19.2397V19.2545V19.2693V19.2841V19.2988V19.3136V19.3283V19.343V19.3577V19.3724V19.387V19.4017V19.4163V19.4309V19.4455V19.4601V19.4746V19.4891V19.5037V19.5182V19.5327V19.5471V19.5616V19.576V19.5904V19.6048V19.6192V19.6335V19.6479V19.6622V19.6765V19.6907V19.705V19.7192V19.7334V19.7476V19.7618V19.776V19.7901V19.8042V19.8183V19.8324V19.8464V19.8605V19.8745V19.8884V19.9024V19.9163V19.9303V19.9441V19.958V19.9719V19.9857V19.9995V20.0133V20.027V20.0407V20.0545V20.0681V20.0818V20.0954V20.109C46.035 20.66 45.8985 21.0655 45.6786 21.3358C45.4658 21.5975 45.1315 21.7863 44.6169 21.8281C43.9219 21.8846 43.0855 21.9862 42.1965 22.1909C42.1961 22.191 42.1957 22.1911 42.1953 22.1912L40.2248 22.6351L40.2101 22.6384L40.1956 22.6426L38.2228 23.2139L38.1931 23.2225L38.1647 23.2347L35.7974 24.2504L35.7752 24.2599L35.754 24.2716L33.5557 25.4778L33.5336 25.4899L33.5128 25.5042L32.4982 26.2025L32.484 26.2123L32.4705 26.223L31.5123 26.9848L31.5046 26.9909L31.4971 26.9974L30.5389 27.8226L30.5218 27.8374L30.5061 27.8536L30.3963 27.9669C30.3166 28.0492 30.2314 28.1347 30.1432 28.2231C29.8483 28.5188 29.5201 28.8479 29.2525 29.2047C29.0387 29.4899 28.8227 29.7589 28.5853 29.9389C28.3602 30.1096 28.1657 30.1643 27.9599 30.1144C27.6917 30.0495 27.5569 29.96 27.5107 29.8839C27.465 29.8087 27.4204 29.6627 27.4068 29.4163C27.3937 29.1781 27.4117 28.8929 27.4497 28.5764C27.4876 28.2617 27.5432 27.9326 27.6002 27.6069C27.6078 27.5634 27.6154 27.5198 27.6231 27.4762C27.6717 27.1997 27.72 26.9252 27.7532 26.6821C27.9966 24.9002 28.8718 22.955 29.8478 21.2438C30.819 19.5411 31.8644 18.1135 32.4139 17.3669C32.5704 17.1543 32.7451 16.9611 32.9387 16.7926C36.6823 13.5344 38.9612 12.7064 40.7217 12.1055Z" stroke="black"/>
<path d="M63.3115 12.9586C65.2151 14.3571 65.2152 17.201 63.3117 18.5996L52.5921 26.4763C50.2807 28.1747 47.0197 26.5242 47.0196 23.6559L47.0192 7.90315C47.0191 5.03482 50.28 3.3842 52.5915 5.0825L63.3115 12.9586Z" stroke="black"/>
<path d="M46.4556 11.7313C46.3756 11.6817 46.27 11.5299 46.3274 11.4136C46.3361 11.3959 46.3861 11.3728 46.3664 11.3505C46.34 11.3208 46.336 11.3345 46.336 11.2788C46.336 11.2231 46.3102 11.1851 46.3493 11.1301C46.3734 11.0962 46.3413 10.9834 46.3702 10.9996" stroke="#AFCAF6" stroke-width="3" stroke-linecap="round"/>
<path d="M46.6243 11.3654C46.5642 11.3579 46.6203 11.3141 46.6034 11.2927C46.5842 11.2683 46.5416 11.3059 46.5388 11.2499C46.5356 11.1841 46.5433 11.1207 46.5863 11.0723C46.6705 10.9775 46.4069 11.0366 46.3849 11.0381C46.3191 11.0424 46.2734 11.0392 46.2444 11.1194C46.1354 11.4207 46.0968 11.7635 46.0943 12.0928C46.0917 12.4319 46.1513 12.7678 46.214 13.0983C46.2494 13.2852 46.3251 13.4654 46.3887 13.6417C46.4729 13.8749 46.5247 14.1255 46.6243 14.3499" stroke="#AFCAF6" stroke-width="3" stroke-linecap="round"/>
<path d="M46.6064 11.3271C46.7182 11.3271 46.6896 11.0653 46.709 10.9998" stroke="#AFCAF6" stroke-width="3" stroke-linecap="round"/>
<path d="M46.7342 21.0672C46.6283 21.0672 46.2829 21.0908 46.5775 21.0398C46.6341 21.03 46.7324 21.0558 46.783 21.0241C46.881 20.9627 46.6051 20.8994 46.5984 20.8985C46.5143 20.8881 46.1804 20.8258 46.1455 20.9535C46.0927 21.1469 46.8385 21.1665 46.668 21.1026C46.581 21.0699 46.618 20.8778 46.6645 20.8122C46.715 20.7412 46.6715 20.4804 46.6715 20.3964C46.6715 20.0843 46.6355 19.7881 46.6018 19.4783C46.5904 19.3727 46.5546 19.2735 46.5461 19.1684C46.5324 18.9987 46.511 19.5068 46.4973 19.6764C46.4645 20.0837 46.1498 21.2601 46.2814 20.8789C46.3407 20.7069 46.3263 20.5069 46.3632 20.3277C46.4363 19.9729 46.5104 19.616 46.5426 19.2527C46.5665 18.984 46.5461 18.7017 46.5461 18.4328C46.5461 18.0865 46.5622 18.4343 46.5931 18.5799C46.6901 19.0363 46.8998 19.4674 46.9502 19.9354C46.9524 19.9555 46.9537 20.0165 46.9537 19.9962C46.9537 19.8757 46.9545 19.7556 46.9484 19.6352C46.9235 19.1389 46.7911 18.664 46.7412 18.1719C46.7303 18.0643 46.7363 18.0028 46.7133 18.1679C46.6721 18.4634 46.6298 18.7596 46.5984 19.0566C46.5646 19.3753 46.5473 19.6948 46.5461 20.0158C46.5458 20.0996 46.5554 20.3392 46.5862 20.263C46.7865 19.7666 46.8151 19.1187 46.8997 18.5838C46.9474 18.2821 46.9223 18.7239 46.9223 18.7898C46.9223 19.0121 46.9357 19.2427 46.8927 19.4607C46.8831 19.5091 46.7767 19.2414 46.7481 19.2076C46.7354 19.1925 46.7359 19.3216 46.7342 19.3371C46.7311 19.3651 46.6756 19.2621 46.6715 19.29C46.6413 19.4943 46.7905 20.1575 46.6645 19.5489C46.5879 19.1787 46.5033 18.8423 46.3023 18.5328C46.2089 18.3891 46.24 18.368 46.257 18.525C46.2929 18.858 46.2639 19.2104 46.2639 19.545C46.2639 19.647 46.2283 19.9448 46.2639 19.851C46.3346 19.6654 46.3617 19.4549 46.3963 19.2586C46.4508 18.9495 46.5719 18.6807 46.6576 18.3837C46.7749 17.9772 46.7855 17.532 46.7516 17.1086C46.7155 16.6572 46.6088 16.2327 46.6088 15.7787C46.6088 14.9384 46.8191 14.0972 46.7638 13.256C46.7627 13.2396 46.75 13.1409 46.7272 13.1383C46.7133 13.1367 46.7016 13.1553 46.6959 13.1697C46.6491 13.2872 46.6085 13.554 46.5931 13.6463C46.5198 14.0867 46.44 14.5433 46.4538 14.994C46.4737 15.6433 46.5461 16.2874 46.5461 16.9399C46.5461 17.3249 46.5148 17.7076 46.5148 18.0914C46.5148 18.4151 46.4562 18.0251 46.4346 17.9149C46.2879 17.1638 46.358 16.4309 46.358 15.6708C46.358 15.2108 46.3266 14.7494 46.3266 14.2878" stroke="#AFCAF6" stroke-width="3" stroke-linecap="round"/>
<path d="M49.8701 16.256C50.1749 15.5988 50.6244 15.0021 51.0735 14.4589C51.1135 14.4105 51.1798 14.3613 51.1998 14.2963C51.2103 14.262 51.2083 14.2509 51.2378 14.2343" stroke="#AFCAF6" stroke-width="3" stroke-linecap="round"/>
<path d="M46.525 12.7772C46.5255 12.7603 46.5953 12.3235 46.6797 12.4185C46.7627 12.512 46.5412 12.9545 46.5045 13.0463C46.4979 13.0628 46.4315 13.1923 46.4112 13.1155C46.3705 12.9606 46.4731 12.7389 46.525 12.603C46.5517 12.533 46.8002 12.0001 46.7047 12.3468C46.6743 12.457 46.365 13.2632 46.2042 13.0822C45.9708 12.8192 46.411 12.2444 46.5887 12.0957C46.7304 11.9771 46.4951 12.5404 46.4408 12.6107C46.1851 12.9419 46.1859 12.4075 46.2884 12.2238C46.3424 12.127 46.7312 11.7835 46.7206 11.8189C46.6718 11.9839 46.371 12.4161 46.1815 12.334C45.7992 12.1684 46.9233 11.4453 46.5637 11.9009C46.534 11.9385 46.2884 12.1495 46.3453 11.9445C46.3909 11.7801 46.5972 11.3343 46.5887 11.5063C46.5743 11.7988 46.3102 12.111 46.2634 12.416C46.2248 12.667 46.1446 13.7051 46.5568 13.136C46.6322 13.0319 46.7341 12.7496 46.8708 12.7311C47.0537 12.7064 47.0337 13.2682 47.0301 13.3614C47.0151 13.747 46.9365 14.1297 46.8344 14.4965C46.7847 14.6752 46.7164 15.2197 46.6911 15.0346C46.5816 14.2331 46.8547 13.3418 47.1939 12.6543C47.2919 12.4554 47.2748 12.4724 47.1939 12.6619C47.0127 13.0864 46.8712 13.5338 46.7297 13.9764C46.6322 14.2815 46.5479 14.6351 46.3794 14.9039C46.2905 15.0458 46.4119 14.4001 46.4135 14.394C46.5511 13.8828 46.7034 13.3856 46.7935 12.8592C46.8105 12.7595 46.8756 12.2138 46.8117 12.6338C46.6934 13.4105 46.6492 14.3336 46.1246 14.9244C45.9408 15.1314 46.0342 14.7207 46.0518 14.6375C46.1452 14.1954 46.3012 13.7644 46.434 13.3358C46.4519 13.278 46.5614 12.948 46.5614 13.2077C46.5614 13.4634 46.5065 13.7392 46.4249 13.9764C46.3276 14.2593 46.1685 14.5221 45.9631 14.7194C45.7846 14.8909 45.8446 14.6632 45.8994 14.5426C46.0038 14.3125 46.1175 14.0783 46.2383 13.8585C46.4068 13.5521 46.3389 13.9448 46.3111 14.0789C46.2463 14.3926 46.1487 14.6972 46.0768 15.009C46.0647 15.0614 45.9035 15.7051 46.0245 15.5906C46.1773 15.446 46.7448 14.6544 46.7639 15.3088C46.7731 15.6273 46.7177 15.9451 46.6979 16.2619C46.6814 16.5259 46.7056 16.7933 46.6797 17.0562C46.6684 17.171 46.6114 17.2908 46.6114 17.4047C46.6114 17.4355 46.6927 17.4971 46.7093 17.5303C46.8684 17.8488 46.9599 17.1658 46.9755 17.0665" stroke="#AFCAF6" stroke-width="3" stroke-linecap="round"/>
<path d="M46.889 21.3739C46.6879 21.3957 46.4888 21.4163 46.2868 21.4163C46.2658 21.4163 46.1367 21.4339 46.1823 21.4916C46.2403 21.5652 46.5816 21.5011 46.682 21.5011C46.7951 21.5011 46.8499 21.5858 46.7196 21.5858C46.6005 21.5858 46.4813 21.5858 46.3621 21.5858" stroke="#AFCAF6" stroke-width="3" stroke-linecap="round"/>
<path d="M46.7261 11.0902C46.733 11.0947 46.7429 11.0992 46.751 11.0992C46.7577 11.0992 46.7629 11.0965 46.769 11.0938C46.7766 11.0906 46.7843 11.0881 46.7916 11.0841C46.8049 11.0768 46.8182 11.0726 46.8322 11.0676C46.8393 11.065 46.8457 11.0623 46.8533 11.0623" stroke="#AFCAF6" stroke-width="3" stroke-linecap="round"/>
<path d="M46.362 20.9776C46.4278 20.855 46.501 20.7375 46.5586 20.6094C46.613 20.4883 46.6188 20.378 46.5889 20.2461C46.5474 20.0631 46.4468 19.917 46.3817 19.746C46.2963 19.5219 46.2886 19.2772 46.3129 19.0376C46.3314 18.8547 46.3917 18.6849 46.4223 18.5053C46.4524 18.3288 46.4015 18.1933 46.3383 18.0349C46.3246 18.0003 46.2955 17.9256 46.2803 17.8895C46.2693 17.8634 46.2461 17.7911 46.2369 17.818C46.2234 17.8576 46.2442 17.9577 46.2481 17.9906C46.2622 18.1094 46.2862 18.2247 46.3057 18.3423" stroke="#AFCAF6" stroke-width="3" stroke-linecap="round"/>
<path d="M46.7401 11.1125C46.7388 11.1062 46.7286 11.113 46.7292 11.104C46.7296 11.0992 46.7314 11.095 46.7312 11.0901C46.7309 11.0845 46.7181 11.0805 46.7143 11.0783C46.7069 11.0742 46.7059 11.0538 46.7051 11.0456C46.7042 11.0371 46.7085 11.0259 46.6989 11.0241C46.698 11.0239 46.6921 11.023 46.6932 11.0216C46.6941 11.0203 46.6949 11.0191 46.6942 11.0173C46.693 11.0148 46.6838 11.0093 46.6845 11.0122C46.6858 11.0174 46.6864 11.0117 46.6864 11.0095C46.6864 11.0062 46.6861 11.0037 46.683 11.0027C46.6805 11.0019 46.6815 10.9965 46.6815 10.9944C46.6815 10.9928 46.6862 10.9912 46.6857 10.9918C46.6837 10.9941 46.6852 11.0102 46.6862 11.0129C46.6872 11.0155 46.6869 11.0207 46.6874 11.0236C46.6881 11.0282 46.6893 11.0337 46.6894 11.0384C46.6896 11.0446 46.6907 11.0503 46.6913 11.0565C46.6916 11.0592 46.6925 11.0619 46.6924 11.0646C46.6921 11.072 46.6806 11.0673 46.6775 11.0666" stroke="#AFCAF6" stroke-width="3" stroke-linecap="round"/>
<path d="M46.6315 11.0893C46.6257 11.0893 46.6212 11.0848 46.6156 11.0848C46.6088 11.0848 46.606 11.0715 46.6057 11.0658C46.6055 11.0627 46.6036 11.0614 46.6025 11.059C46.6012 11.0564 46.6006 11.0539 46.5995 11.0512C46.5973 11.0455 46.593 11.0429 46.5906 11.0378C46.5872 11.0306 46.5782 11.0182 46.5836 11.0107C46.5841 11.01 46.5849 11.004 46.5848 11.0031C46.5847 11.0009 46.5821 10.9995 46.5818 10.9975C46.5816 10.9956 46.5791 10.9942 46.5781 10.9928C46.5774 10.9917 46.5785 10.9897 46.5776 10.9888C46.5756 10.9865 46.5767 10.9914 46.5769 10.9919" stroke="#AFCAF6" stroke-width="3" stroke-linecap="round"/>
<path d="M46.5989 11.0566C46.5989 11.0505 46.6031 11.0464 46.6069 11.0421C46.6102 11.0384 46.614 11.0396 46.6178 11.0398C46.6258 11.0403 46.6307 11.0288 46.6307 11.0213C46.6307 11.0132 46.6313 11.0071 46.6297 10.999C46.6289 10.9949 46.6292 10.9928 46.6269 10.9903C46.626 10.9893 46.6203 10.9832 46.6237 10.9883" stroke="#AFCAF6" stroke-width="3" stroke-linecap="round"/>
<path d="M46.7319 11.0781C46.7345 11.0703 46.7406 11.0636 46.7406 11.0552C46.7406 11.0504 46.7395 11.0461 46.7395 11.0411C46.7395 11.0363 46.7376 11.0294 46.7357 11.025C46.7346 11.0226 46.7322 11.0167 46.7319 11.0143C46.7311 11.0075 46.7265 11.0011 46.7265 10.9941C46.7265 10.9902 46.7254 10.9896 46.7254 10.9891C46.7254 10.9876 46.7236 10.981 46.7222 10.9841" stroke="#AFCAF6" stroke-width="3" stroke-linecap="round"/>
<path d="M46.6419 11.0669C46.6329 11.0617 46.6329 11.0549 46.6308 11.0445C46.6299 11.0401 46.629 11.0348 46.629 11.0304C46.629 11.0251 46.627 11.0202 46.627 11.0148C46.627 11.0107 46.626 11.007 46.626 11.0031C46.626 11.0001 46.6231 10.9944 46.627 10.9941C46.6291 10.994 46.6308 10.992 46.633 10.9919C46.6358 10.9917 46.6389 10.9907 46.6415 10.9896C46.6444 10.9885 46.6467 10.986 46.6493 10.9851C46.6547 10.9834 46.6519 10.979 46.6529 10.9874" stroke="#AFCAF6" stroke-width="3" stroke-linecap="round"/>
<path d="M46.6973 11.0399C46.6969 11.032 46.6967 11.0232 46.6952 11.0158C46.6944 11.0118 46.691 11.0077 46.6893 11.0041C46.6868 10.9985 46.6865 10.9931 46.6834 10.9875C46.6822 10.9854 46.6814 10.9816 46.6814 10.979C46.6814 10.977 46.6827 10.9855 46.6809 10.985C46.6785 10.9842 46.6698 10.9718 46.6754 10.9828" stroke="#AFCAF6" stroke-width="3" stroke-linecap="round"/>
<path d="M46.8375 21.8462C46.8095 21.8255 46.7723 21.8291 46.7426 21.8135C46.7335 21.8087 46.7165 21.8111 46.7063 21.81C46.6865 21.8078 46.6659 21.8094 46.6459 21.8094C46.5987 21.8094 46.5511 21.8078 46.5038 21.8094C46.4711 21.8105 46.4391 21.8215 46.4061 21.8224C46.3819 21.8231 46.3577 21.8226 46.3335 21.8226" stroke="#AFCAF6" stroke-width="2" stroke-linecap="round"/>
<path d="M46.7315 21.8425C46.7176 21.8598 46.7109 21.8704 46.7109 21.8921C46.7109 21.9037 46.7109 21.9153 46.7109 21.9268C46.7109 21.9344 46.7272 21.9351 46.733 21.9351C46.745 21.9351 46.7496 21.9417 46.7344 21.9417" stroke="#AFCAF6" stroke-width="0.2" stroke-linecap="round"/>
<path d="M46.7123 21.9509C46.7082 21.9475 46.7008 21.9466 46.696 21.9452C46.685 21.9421 46.6734 21.9404 46.662 21.9401C46.6409 21.9395 46.6199 21.938 46.5988 21.938C46.5794 21.938 46.5604 21.9343 46.541 21.9343C46.5326 21.9343 46.5239 21.935 46.5155 21.934C46.5081 21.9332 46.5012 21.9306 46.4941 21.9279" stroke="#AFCAF6" stroke-width="0.2" stroke-linecap="round"/>
<path d="M46.6525 21.9437C46.6327 21.9446 46.6132 21.9447 46.5934 21.9419C46.5871 21.941 46.5807 21.9399 46.5743 21.9392C46.5676 21.9385 46.5609 21.9406 46.5543 21.9399C46.5387 21.9384 46.5233 21.9388 46.5077 21.9386C46.4998 21.9386 46.4924 21.9368 46.4847 21.9352C46.4767 21.9335 46.4686 21.9336 46.4604 21.9336" stroke="#AFCAF6" stroke-width="0.2" stroke-linecap="round"/>
<path d="M46.2961 21.948C46.3027 21.948 46.3118 21.9462 46.3181 21.9482C46.3199 21.9487 46.3135 21.9605 46.3124 21.9628" stroke="#AFCAF6" stroke-width="0.2" stroke-linecap="round"/>
<path d="M46.3449 21.9537C46.3406 21.9537 46.3368 21.9532 46.3328 21.9549C46.3302 21.9561 46.3281 21.9574 46.3253 21.9581C46.3235 21.9586 46.3207 21.9588 46.3192 21.9604C46.3178 21.9618 46.3131 21.963 46.3113 21.9619C46.3097 21.961 46.3158 21.9593 46.3166 21.9593C46.3184 21.9592 46.3201 21.9594 46.3219 21.9592C46.3256 21.9589 46.3303 21.9582 46.3339 21.957C46.3341 21.9569 46.338 21.955 46.3376 21.9562C46.3374 21.957 46.3351 21.9576 46.3344 21.9579C46.333 21.9584 46.3289 21.9593 46.3303 21.9593C46.3322 21.9593 46.3341 21.9587 46.3358 21.9587" stroke="#AFCAF6" stroke-width="0.2" stroke-linecap="round"/>
<path d="M46.4702 21.9375C46.4674 21.9386 46.4659 21.9429 46.463 21.9444C46.4618 21.9451 46.4607 21.9453 46.4594 21.9453C46.4571 21.9453 46.4548 21.9453 46.4525 21.9453C46.4477 21.9453 46.4432 21.9481 46.4385 21.9481C46.4334 21.9481 46.4282 21.9481 46.4231 21.9481" stroke="#AFCAF6" stroke-width="0.2"/>
<path d="M46.4215 21.9479C46.4063 21.947 46.3911 21.9444 46.3758 21.9459C46.3648 21.9469 46.3546 21.9509 46.3439 21.9534C46.3384 21.9547 46.3327 21.9585 46.3425 21.9577C46.3544 21.9568 46.3638 21.9511 46.3756 21.9532C46.3841 21.9548 46.3927 21.9524 46.4012 21.9524C46.4197 21.9524 46.4381 21.9501 46.4566 21.9501C46.4743 21.9501 46.4921 21.9522 46.5098 21.9532C46.521 21.9539 46.5323 21.9535 46.5436 21.9535C46.5576 21.9535 46.5715 21.9523 46.5855 21.9515C46.6079 21.9502 46.6307 21.9502 46.6529 21.9459C46.6629 21.944 46.6731 21.9395 46.6833 21.9394C46.6912 21.9392 46.6986 21.9428 46.7065 21.9429C46.7155 21.9429 46.7244 21.9401 46.7334 21.9394C46.7466 21.9383 46.7598 21.9391 46.7731 21.94" stroke="#AFCAF6" stroke-width="0.2"/>
<path d="M46.7575 21.9457C46.7418 21.9457 46.7264 21.9464 46.7109 21.9434" stroke="#AFCAF6" stroke-width="0.2"/>
<path d="M46.4876 11.221C46.4844 11.2091 46.4755 11.1985 46.4755 11.1861C46.4755 11.1788 46.4755 11.1714 46.4755 11.1641C46.4755 11.1506 46.4683 11.1376 46.4651 11.1249C46.4636 11.1192 46.4604 11.1111 46.4604 11.1055C46.4604 11.0979 46.4673 11.0933 46.468 11.0868C46.4683 11.0837 46.4704 11.0814 46.4694 11.0776C46.4687 11.0747 46.4666 11.0732 46.4665 11.0698C46.4659 11.0574 46.4635 11.0579 46.474 11.0511" stroke="#AFCAF6" stroke-width="3" stroke-linecap="round"/>
<path d="M46.4928 11.1822C46.4846 11.1644 46.4744 11.1472 46.4666 11.1297C46.462 11.1194 46.4625 11.1114 46.4625 11.0995C46.4625 11.0897 46.4648 11.079 46.4648 11.0706C46.4648 11.0587 46.4536 11.0455 46.4671 11.043" stroke="#AFCAF6" stroke-width="3" stroke-linecap="round"/>
<path d="M46.4694 11.0179C46.4672 11.0127 46.4672 11.0114 46.4724 11.0114" stroke="#AFCAF6" stroke-width="3" stroke-linecap="round"/>
<path d="M46.468 11.0154C46.4685 11.0118 46.4693 11.0128 46.472 11.0115" stroke="#AFCAF6" stroke-width="3" stroke-linecap="round"/>
<path d="M46.468 11.0099V11.006" stroke="#AFCAF6" stroke-width="3" stroke-linecap="round"/>
<path d="M46.4717 11.0072V11.0033" stroke="#AFCAF6" stroke-width="3" stroke-linecap="round"/>
<path d="M46.468 11.0033H46.4738" stroke="#AFCAF6" stroke-width="3" stroke-linecap="round"/>
<path d="M46.4713 11.0039C46.4661 11.0014 46.4679 11.0035 46.4713 11.0039" stroke="#AFCAF6" stroke-width="3" stroke-linecap="round"/>
<path d="M46.4717 11.0041C46.4722 11.0003 46.4735 11.0031 46.4756 11.0041" stroke="#AFCAF6" stroke-width="3" stroke-linecap="round"/>
<path d="M46.4717 11.0007H46.4756" stroke="#AFCAF6" stroke-width="3" stroke-linecap="round"/>
<path d="M46.4792 10.9984H46.4832" stroke="#AFCAF6" stroke-width="3" stroke-linecap="round"/>
<path d="M46.4717 10.9983H46.4774" stroke="#AFCAF6" stroke-width="3" stroke-linecap="round"/>
<path d="M46.4736 10.9996C46.4705 10.9962 46.4717 10.9976 46.4736 10.9957" stroke="#AFCAF6" stroke-width="3" stroke-linecap="round"/>
<path d="M46.4756 10.9956H46.4717" stroke="#AFCAF6" stroke-width="3" stroke-linecap="round"/>
<path d="M46.4756 10.9961C46.4724 10.9957 46.4717 10.9925 46.4717 10.9961" stroke="#AFCAF6" stroke-width="3" stroke-linecap="round"/>
<path d="M46.4756 10.9961C46.4724 10.9957 46.4717 10.9925 46.4717 10.9961" stroke="#AFCAF6" stroke-width="3" stroke-linecap="round"/>
<path d="M46.4756 10.9968C46.472 10.9963 46.473 10.9955 46.4717 10.9929" stroke="#AFCAF6" stroke-width="3" stroke-linecap="round"/>
<path d="M46.4699 10.9917C46.4668 10.9882 46.468 10.9896 46.4699 10.9878" stroke="#AFCAF6" stroke-width="3" stroke-linecap="round"/>
<path d="M46.4507 11.0021C46.4481 10.997 46.4503 10.9988 46.4507 11.0021" stroke="#AFCAF6" stroke-width="3" stroke-linecap="round"/>
<path d="M46.4487 11.0007C46.448 10.9954 46.4408 10.9995 46.4382 11.0007" stroke="#AFCAF6" stroke-width="3" stroke-linecap="round"/>
<path d="M46.4339 11.0037C46.4295 11.0017 46.4309 11.0017 46.4309 11.0037" stroke="#AFCAF6" stroke-width="3" stroke-linecap="round"/>
<path d="M46.4264 11.0042C46.4211 11.0016 46.423 11.0037 46.4264 11.0042" stroke="#AFCAF6" stroke-width="3" stroke-linecap="round"/>
<path d="M46.427 11.0043C46.4235 11.0013 46.425 11.0024 46.4231 11.0043" stroke="#AFCAF6" stroke-width="3" stroke-linecap="round"/>
<path d="M46.4215 11.0033C46.4175 11.0031 46.418 11.0027 46.4158 11.0007" stroke="#AFCAF6" stroke-width="3" stroke-linecap="round"/>
<path d="M46.4121 11.0033H46.4082" stroke="#AFCAF6" stroke-width="3" stroke-linecap="round"/>
<path d="M46.4121 11.0041C46.4089 11.0037 46.4082 11.0005 46.4082 11.0041" stroke="#AFCAF6" stroke-width="3" stroke-linecap="round"/>
<path d="M46.4046 11.0033H46.4006" stroke="#AFCAF6" stroke-width="3" stroke-linecap="round"/>
<path d="M46.4039 11.004C46.4025 11.0025 46.4006 10.9975 46.4006 11.001" stroke="#AFCAF6" stroke-width="3" stroke-linecap="round"/>
<path d="M46.4046 11.0023L46.4006 10.9984" stroke="#AFCAF6" stroke-width="3" stroke-linecap="round"/>
<path d="M46.4046 10.9996C46.4009 10.9992 46.402 10.9983 46.4006 10.9957" stroke="#AFCAF6" stroke-width="3" stroke-linecap="round"/>
<path d="M46.4046 10.9962C46.4011 10.9932 46.4025 10.9944 46.4006 10.9962" stroke="#AFCAF6" stroke-width="3" stroke-linecap="round"/>
<path d="M46.4009 10.9968C46.4005 10.9932 46.3996 10.9942 46.397 10.9929" stroke="#AFCAF6" stroke-width="3" stroke-linecap="round"/>
<path d="M46.4009 10.9941C46.4005 10.9905 46.3996 10.9915 46.397 10.9902" stroke="#AFCAF6" stroke-width="3" stroke-linecap="round"/>
<path d="M46.397 10.9878H46.4009" stroke="#AFCAF6" stroke-width="3" stroke-linecap="round"/>
<path d="M46.3654 11.0033C46.3614 11.0035 46.3618 11.0039 46.3596 11.0059" stroke="#AFCAF6" stroke-width="3" stroke-linecap="round"/>
<path d="M46.3599 11.0033H46.356" stroke="#AFCAF6" stroke-width="3" stroke-linecap="round"/>
<path d="M46.3521 11.0033H46.3578" stroke="#AFCAF6" stroke-width="3" stroke-linecap="round"/>
<path d="M46.3487 11.0014C46.3455 11.001 46.3447 10.9979 46.3447 11.0014" stroke="#AFCAF6" stroke-width="3" stroke-linecap="round"/>
<path d="M46.3487 11.0014C46.3455 11.001 46.3447 10.9979 46.3447 11.0014" stroke="#AFCAF6" stroke-width="3" stroke-linecap="round"/>
<path d="M46.3408 11.001H46.3466" stroke="#AFCAF6" stroke-width="3" stroke-linecap="round"/>
<path d="M46.3404 10.9988C46.3352 10.9962 46.337 10.9984 46.3404 10.9988" stroke="#AFCAF6" stroke-width="3" stroke-linecap="round"/>
<path d="M46.339 10.9962C46.3365 10.9938 46.3365 10.9938 46.339 10.9962" stroke="#AFCAF6" stroke-width="3" stroke-linecap="round"/>
<path d="M46.339 10.9935C46.3365 10.9911 46.3365 10.9911 46.339 10.9935" stroke="#AFCAF6" stroke-width="3" stroke-linecap="round"/>
<path d="M46.339 10.9917C46.336 10.9882 46.3372 10.9896 46.339 10.9878" stroke="#AFCAF6" stroke-width="3" stroke-linecap="round"/>
<path d="M46.3391 10.989C46.3353 10.9884 46.3381 10.9872 46.3391 10.9851" stroke="#AFCAF6" stroke-width="3" stroke-linecap="round"/>
<path d="M46.3372 10.9851H46.3411" stroke="#AFCAF6" stroke-width="3" stroke-linecap="round"/>
<path d="M46.3411 10.9851H46.3372" stroke="#AFCAF6" stroke-width="3" stroke-linecap="round"/>
<path d="M46.3335 10.9799H46.3392" stroke="#AFCAF6" stroke-width="3" stroke-linecap="round"/>
<path d="M46.5398 11.1961C46.5328 11.1927 46.536 11.1931 46.5371 11.1875" stroke="#AFCAF6" stroke-width="3" stroke-linecap="round"/>
<path d="M46.535 11.1787C46.5303 11.174 46.5232 11.1694 46.5319 11.1665" stroke="#AFCAF6" stroke-width="3" stroke-linecap="round"/>
<path d="M46.5343 11.1414C46.5308 11.1378 46.5235 11.1348 46.5313 11.1348" stroke="#AFCAF6" stroke-width="3" stroke-linecap="round"/>
<path d="M46.5338 11.1198C46.5301 11.113 46.5314 11.1151 46.5338 11.1112" stroke="#AFCAF6" stroke-width="3" stroke-linecap="round"/>
<path d="M46.5325 11.1043C46.5308 11.1 46.5316 11.0996 46.5325 11.0957" stroke="#AFCAF6" stroke-width="3" stroke-linecap="round"/>
<path d="M46.5297 11.0888C46.5266 11.0854 46.5278 11.0868 46.5297 11.085" stroke="#AFCAF6" stroke-width="3" stroke-linecap="round"/>
<path d="M46.5304 11.0862C46.5256 11.0855 46.5288 11.0822 46.5304 11.0796" stroke="#AFCAF6" stroke-width="3" stroke-linecap="round"/>
<path d="M46.5319 11.0781C46.5269 11.0755 46.5279 11.0758 46.5279 11.0742" stroke="#AFCAF6" stroke-width="3" stroke-linecap="round"/>
<path d="M46.5332 11.0724C46.5256 11.0719 46.5265 11.0693 46.5332 11.0693" stroke="#AFCAF6" stroke-width="3" stroke-linecap="round"/>
<path d="M46.5294 11.0679C46.5262 11.0648 46.5213 11.064 46.5263 11.0613" stroke="#AFCAF6" stroke-width="3" stroke-linecap="round"/>
<path d="M46.5229 11.0539C46.5187 11.049 46.5248 11.042 46.5203 11.0349" stroke="#AFCAF6" stroke-width="3" stroke-linecap="round"/>
<path d="M46.5235 11.0335C46.518 11.0329 46.5206 11.0311 46.5235 11.0297" stroke="#AFCAF6" stroke-width="3" stroke-linecap="round"/>
<path d="M46.5204 11.0279C46.5204 11.0236 46.5195 11.0212 46.5231 11.0193" stroke="#AFCAF6" stroke-width="3" stroke-linecap="round"/>
<path d="M46.5314 11.0169C46.5269 11.0146 46.5263 11.014 46.5314 11.014" stroke="#AFCAF6" stroke-width="3" stroke-linecap="round"/>
<path d="M46.5336 11.0139C46.5285 11.0099 46.5327 11.0135 46.5278 11.0114" stroke="#AFCAF6" stroke-width="3" stroke-linecap="round"/>
<path d="M46.5331 11.0117C46.5258 11.0117 46.5264 11.0102 46.5331 11.0087" stroke="#AFCAF6" stroke-width="3" stroke-linecap="round"/>
<path d="M46.5336 11.0086C46.5315 11.0069 46.5303 11.0067 46.5278 11.006" stroke="#AFCAF6" stroke-width="3" stroke-linecap="round"/>
<path d="M46.5318 11.006H46.5278" stroke="#AFCAF6" stroke-width="3" stroke-linecap="round"/>
<path d="M46.5325 11.0022C46.5257 11.0013 46.5269 10.9971 46.5325 10.9956" stroke="#AFCAF6" stroke-width="3" stroke-linecap="round"/>
<path d="M46.5342 10.9934C46.5273 10.9926 46.5356 10.9908 46.5375 10.9904" stroke="#AFCAF6" stroke-width="3" stroke-linecap="round"/>
<path d="M46.5354 10.9904H46.5393" stroke="#AFCAF6" stroke-width="3" stroke-linecap="round"/>
<path d="M46.5393 10.9904H46.5354" stroke="#AFCAF6" stroke-width="3" stroke-linecap="round"/>
<path d="M46.5336 10.9932C46.5298 10.9932 46.5294 10.993 46.5278 10.9958" stroke="#AFCAF6" stroke-width="3" stroke-linecap="round"/>
<path d="M46.526 10.9957C46.5233 10.996 46.5224 10.997 46.5203 10.9983" stroke="#AFCAF6" stroke-width="3" stroke-linecap="round"/>
<path d="M46.5129 10.9984H46.5187" stroke="#AFCAF6" stroke-width="3" stroke-linecap="round"/>
<path d="M46.5169 10.999C46.5163 10.9952 46.515 10.998 46.5129 10.999" stroke="#AFCAF6" stroke-width="3" stroke-linecap="round"/>
<path d="M46.5129 10.9996C46.5134 10.996 46.5142 10.997 46.5169 10.9957" stroke="#AFCAF6" stroke-width="3" stroke-linecap="round"/>
<path d="M46.5169 10.9957C46.5132 10.9962 46.5143 10.997 46.5129 10.9996" stroke="#AFCAF6" stroke-width="3" stroke-linecap="round"/>
<path d="M46.5132 10.9957H46.5093" stroke="#AFCAF6" stroke-width="3" stroke-linecap="round"/>
<path d="M46.5054 10.9957H46.5111" stroke="#AFCAF6" stroke-width="3" stroke-linecap="round"/>
<path d="M46.502 10.9962C46.4985 10.9932 46.4999 10.9944 46.498 10.9962" stroke="#AFCAF6" stroke-width="3" stroke-linecap="round"/>
<path d="M46.502 10.997C46.5015 10.9935 46.5007 10.9945 46.498 10.9932" stroke="#AFCAF6" stroke-width="3" stroke-linecap="round"/>
<path d="M46.4944 10.9917C46.4908 10.9912 46.4918 10.9904 46.4905 10.9878" stroke="#AFCAF6" stroke-width="3" stroke-linecap="round"/>
<path d="M46.4944 10.989C46.4908 10.9885 46.4918 10.9877 46.4905 10.9851" stroke="#AFCAF6" stroke-width="3" stroke-linecap="round"/>
<path d="M46.4346 11.006H46.4307" stroke="#AFCAF6" stroke-width="3" stroke-linecap="round"/>
<path d="M46.4288 11.0059C46.4262 11.0056 46.4252 11.0046 46.4231 11.0033" stroke="#AFCAF6" stroke-width="3" stroke-linecap="round"/>
<path d="M46.4191 11.0015C46.4152 11.0011 46.4158 10.9954 46.4158 10.9985" stroke="#AFCAF6" stroke-width="3" stroke-linecap="round"/>
<path d="M46.4158 10.9996V10.9957" stroke="#AFCAF6" stroke-width="3" stroke-linecap="round"/>
<path d="M46.4197 10.9962C46.4192 10.9924 46.4179 10.9952 46.4158 10.9962" stroke="#AFCAF6" stroke-width="3" stroke-linecap="round"/>
<path d="M46.4219 10.9944C46.4214 10.9906 46.4184 10.9892 46.4158 10.9878" stroke="#AFCAF6" stroke-width="3" stroke-linecap="round"/>
<path d="M46.6177 11.0442C46.6141 11.0437 46.6151 11.0429 46.6138 11.0403" stroke="#AFCAF6" stroke-width="3" stroke-linecap="round"/>
<path d="M47.0863 10.8223C47.0534 10.8632 47.0222 10.9029 46.9818 10.9347C46.9596 10.9522 46.9359 10.9682 46.9141 10.9863C46.8877 11.0081 46.858 11.0325 46.853 11.0719" stroke="#AFCAF6" stroke-width="3" stroke-linecap="round"/>
<path d="M46.6826 21.9059C46.6944 21.9069 46.7057 21.9101 46.717 21.9137C46.7248 21.9162 46.7327 21.9187 46.7401 21.9225C46.7419 21.9234 46.7455 21.925 46.7464 21.9274C46.7484 21.9327 46.7299 21.9323 46.7272 21.9323C46.7229 21.9323 46.7187 21.9307 46.7146 21.9298C46.7089 21.9285 46.703 21.9286 46.6973 21.9276C46.686 21.9257 46.6739 21.9254 46.6626 21.9254C46.6618 21.9254 46.6549 21.9257 46.655 21.926C46.6574 21.9292 46.665 21.9284 46.6681 21.9284C46.6717 21.9284 46.6743 21.9264 46.6779 21.9264C46.6806 21.9264 46.6835 21.9254 46.6865 21.9254C46.6883 21.9254 46.6905 21.925 46.6922 21.9259C46.6935 21.9266 46.6931 21.9278 46.694 21.9284C46.6974 21.9306 46.696 21.9285 46.6931 21.9294C46.6915 21.9299 46.6912 21.9313 46.6888 21.9313C46.6852 21.9313 46.6816 21.9313 46.678 21.9313C46.6731 21.9313 46.6699 21.9264 46.6649 21.9264" stroke="#AFCAF6" stroke-width="0.5"/>
<path d="M48.5871 22.707C48.5676 22.5064 48.5694 22.3301 48.6465 22.1415C48.7411 21.9104 48.9072 21.8 49.0848 21.6603C49.3457 21.455 49.5962 21.2329 49.8611 21.034C50.2566 20.7371 50.6759 20.5417 51.1362 20.4115C52.4127 20.0503 53.7595 20.1007 55.0088 19.6041" stroke="#AFCAF6" stroke-width="3" stroke-linecap="round"/>
<path d="M46.6767 21.6744C46.6714 21.6751 46.6739 21.6768 46.6767 21.6782" stroke="#AFCAF6" stroke-width="3" stroke-linecap="round"/>
<path d="M46.6829 21.6724C46.6787 21.6702 46.675 21.6658 46.6797 21.6724" stroke="#AFCAF6" stroke-width="3" stroke-linecap="round"/>
<path d="M46.6812 21.6951C46.6829 21.6989 46.6831 21.7016 46.6864 21.7034" stroke="#AFCAF6" stroke-width="3" stroke-linecap="round"/>
<path d="M46.6849 21.728C46.6795 21.7247 46.6803 21.7242 46.6849 21.728" stroke="#AFCAF6" stroke-width="3" stroke-linecap="round"/>
<path d="M46.6897 21.7458C46.6865 21.7463 46.6922 21.7484 46.6927 21.7486" stroke="#AFCAF6" stroke-width="3" stroke-linecap="round"/>
<path d="M46.6933 21.7686C46.6901 21.7691 46.6959 21.7711 46.6963 21.7713" stroke="#AFCAF6" stroke-width="3" stroke-linecap="round"/>
<path d="M46.7847 21.6774C46.7823 21.6774 46.7805 21.6758 46.7783 21.6744" stroke="#AFCAF6" stroke-width="3" stroke-linecap="round"/>
<path d="M52.0812 11.3837C52.0775 11.3176 52.0704 11.4841 52.0702 11.4999C52.0696 11.5654 52.0602 11.6301 52.0593 11.6955C52.0591 11.7102 52.061 11.7555 52.0678 11.7133C52.0852 11.6052 52.0812 11.4865 52.0812 11.3768C52.0812 11.314 52.0597 11.48 52.0569 11.4931C52.0157 11.6818 51.9675 11.8668 51.9792 12.0634C51.9854 12.1697 52.006 12.2764 52.0629 12.3636C52.1097 12.4353 52.093 12.2917 52.0903 12.2706C52.0707 12.1216 52.0303 11.9781 52.0071 11.8302C52.006 11.8236 51.9923 11.5897 52.0368 11.6674C52.0918 11.7634 52.0789 11.9329 52.0805 12.0408C52.0823 12.1552 52.0705 12.2762 52.0872 12.3896C52.1013 12.4845 52.112 12.3939 52.1139 12.3499C52.1211 12.1878 52.1262 12.0285 52.1139 11.8664C52.0989 11.6668 52.103 11.5074 52.103 11.3221C52.103 11.2956 52.1034 11.1788 52.0702 11.1744C52.0261 11.1686 52.0404 11.1196 52.0484 11.0882C52.0515 11.076 52.0732 11.0092 52.0532 11.0028C52.0314 10.9957 52.0027 11.007 52.018 10.9651C52.0235 10.9502 52.0002 10.9641 51.9828 10.9651C51.9706 10.9659 51.9622 10.9767 51.95 10.9775C51.9426 10.9779 51.9281 10.9643 51.9281 10.9727C51.9281 11.0342 51.905 11.1039 51.9233 11.1628C51.9528 11.2576 51.9618 11.3655 51.9773 11.4643C52.0055 11.644 52.0466 11.8162 52.0569 11.9991C52.0664 12.17 52.0303 12.3585 52.0593 12.5257C52.0733 12.6065 52.103 12.6839 52.1249 12.7623C52.1573 12.8784 52.1467 13.0241 52.1467 13.1438C52.1467 13.4046 52.1467 13.6654 52.1467 13.9261C52.1467 14.2129 52.1467 14.4996 52.1467 14.7864C52.1467 15.016 52.1139 15.2417 52.1139 15.4709C52.1139 15.6497 52.1063 15.8305 52.1249 16.0084C52.1262 16.0213 52.1387 16.0711 52.1516 16.0337C52.1783 15.9563 52.1691 15.8402 52.1662 15.7602C52.1636 15.6903 52.1577 15.6206 52.1528 15.5509C52.1506 15.5203 52.1677 15.4435 52.1443 15.4593C52.1344 15.466 52.13 15.5494 52.1297 15.5516C52.1204 15.6315 52.1114 15.7116 52.103 15.7916C52.0789 16.0218 52.0589 16.2529 52.0399 16.4837C52.0323 16.5756 51.9916 16.7706 52.038 16.8577C52.0641 16.9067 52.0954 16.7893 52.1139 16.8728C52.1195 16.8979 52.1337 16.9037 52.1413 16.8741C52.2017 16.6397 52.1406 16.4066 52.1139 16.1718" stroke="#AFCAF6" stroke-width="3" stroke-linecap="round"/>
<path d="M46.2083 13.5021C46.1898 13.4946 46.1325 13.4799 46.1517 13.4842C46.2514 13.5067 46.3366 13.498 46.4367 13.4792C46.7223 13.4255 47.5929 13.4215 47.3051 13.4575C47.0943 13.4839 46.8815 13.5518 46.673 13.5951C46.0561 13.7229 45.4325 13.808 44.8151 13.9326C44.7326 13.9492 44.5056 14.0383 44.5663 13.9733C44.6442 13.89 44.8382 13.852 44.9327 13.8179C45.5785 13.5852 46.2538 13.4285 46.9252 13.3238C47.0069 13.311 47.1544 13.2696 47.2396 13.297C47.3316 13.3266 47.0503 13.3292 46.9557 13.3454C46.3584 13.4481 45.762 13.5547 45.1634 13.6485C44.9656 13.6795 44.7656 13.7204 44.5663 13.7377C44.437 13.7489 44.5349 13.685 44.5912 13.6575C45.265 13.3283 46.043 13.2022 46.7669 13.1175C47.0335 13.0862 47.8327 12.9868 47.5675 13.0308C46.9927 13.1264 46.4171 13.2004 45.8407 13.2843C45.6125 13.3175 45.3857 13.3602 45.1577 13.3951C45.1362 13.3984 44.9788 13.4271 45.1068 13.3824C45.6569 13.1901 46.2316 13.1041 46.8008 13.0207C47.1023 12.9764 48.004 12.8341 47.7077 12.9111C47.2897 13.0198 46.8442 13.0493 46.4186 13.0945C46.0894 13.1295 45.7604 13.1601 45.4303 13.1811C45.3557 13.1859 45.1053 13.2476 45.0299 13.1939C44.9587 13.143 45.1724 13.089 45.2516 13.0563C45.597 12.9137 45.9532 12.8188 46.3191 12.7749C46.741 12.7242 47.1734 12.6997 47.598 12.6997C47.9296 12.6997 46.9388 12.7804 46.6086 12.8143C46.1313 12.8634 45.6597 12.9314 45.186 13.0105C45.0821 13.0278 45.1724 12.9817 45.2109 12.9646C45.4361 12.8647 45.6766 12.7968 45.9142 12.7481C46.3892 12.6509 46.8818 12.625 47.364 12.6093C47.4088 12.6078 47.4186 12.608 47.4555 12.608C47.4687 12.608 47.4292 12.6086 47.416 12.6093C47.2229 12.6187 47.0302 12.6291 46.837 12.636C46.3292 12.6542 45.8222 12.688 45.3149 12.7175C45.3101 12.7178 45.1439 12.7204 45.1611 12.7124C45.3076 12.645 45.4817 12.6233 45.6349 12.5838C46.0871 12.4672 46.5475 12.3828 47.0111 12.3571C47.119 12.3511 47.2271 12.3476 47.3346 12.3342C47.439 12.3211 47.1247 12.349 47.0202 12.3609C46.4594 12.4248 45.9005 12.4934 45.3443 12.5978C45.2929 12.6075 45.0097 12.7039 44.9553 12.6615C44.9342 12.6451 45.0013 12.6355 45.0254 12.6258C45.1323 12.5831 45.2418 12.5485 45.3511 12.515C46.0395 12.3041 46.7672 12.2183 47.4804 12.2183C47.7287 12.2183 46.9839 12.2345 46.7363 12.2565C46.3876 12.2875 46.0412 12.3369 45.696 12.4004C45.4649 12.443 45.2172 12.4732 44.9938 12.5571C44.9124 12.5876 45.0278 12.5545 45.0345 12.552C45.1855 12.4958 45.3345 12.4325 45.4891 12.389C46.0027 12.2443 46.5379 12.2584 47.062 12.2068C47.1124 12.2019 47.5013 12.1652 47.2509 12.1737C46.6996 12.1925 46.1294 12.2455 45.5863 12.3507C45.5293 12.3618 45.1137 12.476 45.3828 12.3915C45.7097 12.2889 46.0339 12.2175 46.3711 12.1724C46.6049 12.1412 46.8382 12.1174 47.0699 12.0705C47.2775 12.0286 46.9377 12.0779 46.8958 12.0858C46.4969 12.1612 46.0945 12.1962 45.6949 12.2641C45.662 12.2697 45.239 12.3641 45.471 12.2973C46.1081 12.1137 46.8025 12.0891 47.4567 12.04C47.5843 12.0304 47.6387 12.0788 47.4816 12.0807C47.1251 12.0851 46.7738 12.1139 46.4186 12.1495C46.0095 12.1905 45.6048 12.2527 45.1973 12.3049C45.1225 12.3145 45.1695 12.3099 45.2086 12.3049C45.3542 12.2863 45.4984 12.2506 45.6417 12.217C46.0346 12.1248 46.4241 12.0415 46.8246 12.0018C46.9791 11.9865 47.1338 11.9731 47.2882 11.9559C47.555 11.9263 47.2017 11.9996 47.1491 12.0069C46.5509 12.09 45.9463 12.1264 45.3511 12.2361C45.2982 12.2459 45.3526 12.2385 45.3669 12.2361C45.4587 12.2206 45.5501 12.1998 45.6417 12.1826C45.9573 12.1234 46.2733 12.0822 46.5905 12.0349C46.7593 12.0097 46.9276 11.9772 47.0971 11.9572C47.1602 11.9498 47.1965 11.947 47.2577 11.9445C47.2871 11.9432 47.3639 11.9221 47.3459 11.9483C47.3227 11.9818 47.212 11.9815 47.183 11.9839C47.0258 11.997 46.8677 12.0008 46.7103 12.012C46.2772 12.0428 45.8424 12.0845 45.4133 12.1597C45.2494 12.1884 45.4618 12.1478 45.5072 12.1381C45.7873 12.0776 46.0742 12.0518 46.3575 12.0171C46.5888 11.9887 46.8243 11.9874 47.0541 11.9483C47.1486 11.9322 46.872 11.9871 46.8438 11.989C46.5126 12.012 46.1807 12.0382 45.8509 12.0795C45.8153 12.0839 45.3444 12.1321 45.6089 12.0833C45.8276 12.0429 46.485 11.9658 46.2637 11.9534C46.1011 11.9442 45.9296 11.9843 45.7672 11.9992C45.7294 12.0027 45.3991 12.051 45.5773 11.989C45.9686 11.8528 47.2116 11.8744 46.8019 11.8744C46.4177 11.8744 46.0329 11.9661 45.6474 11.9661C45.5696 11.9661 45.6986 11.9438 45.7197 11.9432C45.8386 11.9397 45.9521 11.9141 46.0703 11.9024C46.0935 11.9001 46.3683 11.8588 46.3666 11.8566C46.3417 11.8245 46.0995 11.8743 46.0646 11.8757C45.8739 11.8834 45.6862 11.9203 45.4947 11.9203C45.4352 11.9203 45.5602 11.8979 45.5773 11.8973C45.715 11.8928 45.8534 11.8973 45.9911 11.8973C46.0982 11.8973 45.777 11.8973 45.67 11.8973C45.6357 11.8973 45.6014 11.8973 45.5671 11.8973C45.5572 11.8973 45.5984 11.8744 45.5886 11.8744C45.5401 11.8744 45.3587 11.8952 45.4958 11.8731C45.578 11.8599 45.6784 11.8228 45.7605 11.8286C45.7729 11.8294 45.646 11.8515 45.6078 11.8515C45.5294 11.8515 45.5068 11.8286 45.5976 11.8286C45.6516 11.8286 45.718 11.8405 45.7706 11.8273C45.8421 11.8094 45.615 11.8286 45.6383 11.8286C45.6854 11.8286 45.9382 11.7702 45.7966 11.8005C45.7398 11.8127 45.6613 11.8286 45.6078 11.8286C45.5079 11.8286 45.6905 11.8183 45.7197 11.8107C45.7801 11.7952 45.8513 11.8056 45.9131 11.8056C46.0285 11.8056 46.1438 11.8056 46.2591 11.8056C46.2982 11.8056 46.4456 11.8286 46.3304 11.8286C46.2693 11.8286 46.1436 11.8562 46.2591 11.8273C46.3683 11.8 46.4804 11.8056 46.595 11.8056C46.704 11.8056 46.8225 11.7827 46.9207 11.7827C47.4585 11.7827 47.9915 11.805 48.5287 11.8515" stroke="#AFCAF6" stroke-width="3" stroke-linecap="round"/>
<path d="M45.5842 12.1991C45.583 12.1759 45.5792 12.1749 45.5967 12.1928" stroke="#AFCAF6" stroke-width="3" stroke-linecap="round"/>
<path d="M45.6052 12.1614L45.6177 12.1748" stroke="#AFCAF6" stroke-width="3" stroke-linecap="round"/>
<path d="M45.6332 12.1257C45.6294 12.1063 45.6203 12.1096 45.6394 12.094" stroke="#AFCAF6" stroke-width="3" stroke-linecap="round"/>
<path d="M45.6449 12.0899C45.6393 12.081 45.6463 12.0813 45.6517 12.0757" stroke="#AFCAF6" stroke-width="3" stroke-linecap="round"/>
<path d="M45.6501 12.0636L45.6693 12.0569" stroke="#AFCAF6" stroke-width="3" stroke-linecap="round"/>
<path d="M45.6772 12.0508C45.6665 12.0496 45.6772 12.0494 45.6833 12.0508" stroke="#AFCAF6" stroke-width="3" stroke-linecap="round"/>
<path d="M45.6858 12.0444C45.6797 12.038 45.6896 12.0436 45.6921 12.0444" stroke="#AFCAF6" stroke-width="3" stroke-linecap="round"/>
<path d="M45.6948 12.0392C45.6881 12.0327 45.6824 12.0325 45.6948 12.0325" stroke="#AFCAF6" stroke-width="3" stroke-linecap="round"/>
<path d="M45.6914 12.02V12.0343" stroke="#AFCAF6" stroke-width="3" stroke-linecap="round"/>
<path d="M45.6982 12.0207C45.6917 12.0135 45.6914 12.0073 45.6914 12.0207" stroke="#AFCAF6" stroke-width="3" stroke-linecap="round"/>
<path d="M45.691 12.0142C45.6863 12.0099 45.6863 12.0099 45.691 12.0142" stroke="#AFCAF6" stroke-width="3" stroke-linecap="round"/>
<path d="M45.6966 12.0147C45.6934 12.0142 45.6825 12.0079 45.6902 12.0079" stroke="#AFCAF6" stroke-width="3" stroke-linecap="round"/>
<path d="M45.6875 12.0096C45.6875 12.0003 45.6871 11.9991 45.6947 11.9954" stroke="#AFCAF6" stroke-width="3" stroke-linecap="round"/>
<path d="M45.6914 11.9976C45.6914 11.9883 45.691 11.9872 45.6986 11.9834" stroke="#AFCAF6" stroke-width="3" stroke-linecap="round"/>
<path d="M45.6982 11.9849C45.6974 11.9786 45.6916 11.9772 45.6982 11.9772" stroke="#AFCAF6" stroke-width="3" stroke-linecap="round"/>
<path d="M45.7023 11.9788C45.6977 11.9737 45.6971 11.9707 45.6951 11.9646" stroke="#AFCAF6" stroke-width="3" stroke-linecap="round"/>
<path d="M45.7021 11.9666C45.6966 11.9597 45.6987 11.9625 45.7021 11.9589" stroke="#AFCAF6" stroke-width="3" stroke-linecap="round"/>
<path d="M45.7026 11.9594C45.7034 11.9532 45.7047 11.9549 45.7091 11.9526" stroke="#AFCAF6" stroke-width="3" stroke-linecap="round"/>
<path d="M45.791 12.0703C45.7626 12.0619 45.7628 12.0569 45.791 12.0569" stroke="#AFCAF6" stroke-width="3" stroke-linecap="round"/>
<path d="M45.7807 12.0637C45.7664 12.0555 45.7767 12.057 45.787 12.057" stroke="#AFCAF6" stroke-width="3" stroke-linecap="round"/>
<path d="M45.7847 12.0584C45.764 12.0559 45.7761 12.0449 45.7911 12.0449" stroke="#AFCAF6" stroke-width="3" stroke-linecap="round"/>
<path d="M45.7787 12.0269C45.7717 12.0189 45.7628 12.0034 45.7787 12.0142" stroke="#AFCAF6" stroke-width="3" stroke-linecap="round"/>
<path d="M45.7724 12.0164C45.7707 12.013 45.7562 11.9923 45.7656 12.0022" stroke="#AFCAF6" stroke-width="3" stroke-linecap="round"/>
<path d="M45.7674 11.9962C45.7628 11.9952 45.7549 11.9895 45.7549 11.9895" stroke="#AFCAF6" stroke-width="3" stroke-linecap="round"/>
<path d="M45.7626 11.9717C45.7557 11.9638 45.7529 11.9598 45.7564 11.9526" stroke="#AFCAF6" stroke-width="3" stroke-linecap="round"/>
<path d="M45.7572 11.9486C45.7563 11.9397 45.7525 11.9393 45.7572 11.9343" stroke="#AFCAF6" stroke-width="3" stroke-linecap="round"/>
<path d="M45.7625 11.9094V11.9237" stroke="#AFCAF6" stroke-width="3" stroke-linecap="round"/>
<path d="M45.756 11.9054C45.7453 11.9029 45.7464 11.897 45.7492 11.8911" stroke="#AFCAF6" stroke-width="3" stroke-linecap="round"/>
<path d="M45.7426 11.8794C45.7377 11.8704 45.7264 11.8655 45.7364 11.8604" stroke="#AFCAF6" stroke-width="3" stroke-linecap="round"/>
<path d="M45.7396 11.8563C45.739 11.8512 45.7347 11.8465 45.7324 11.842" stroke="#AFCAF6" stroke-width="3" stroke-linecap="round"/>
<path d="M45.7318 11.8311C45.7226 11.83 45.7166 11.8226 45.7257 11.8176" stroke="#AFCAF6" stroke-width="3" stroke-linecap="round"/>
<path d="M45.7284 11.8193C45.7238 11.8142 45.7232 11.8111 45.7212 11.8051" stroke="#AFCAF6" stroke-width="3" stroke-linecap="round"/>
<path d="M45.7282 11.8003C45.7189 11.7992 45.7129 11.7919 45.7221 11.7869" stroke="#AFCAF6" stroke-width="3" stroke-linecap="round"/>
<path d="M45.7026 11.7742L45.7151 11.7876" stroke="#AFCAF6" stroke-width="3" stroke-linecap="round"/>
<path d="M45.7039 11.7878C45.7028 11.7777 45.6961 11.7711 45.6914 11.7811" stroke="#AFCAF6" stroke-width="3" stroke-linecap="round"/>
<path d="M45.6886 11.7806C45.6796 11.7806 45.6784 11.7794 45.6822 11.7873" stroke="#AFCAF6" stroke-width="3" stroke-linecap="round"/>
<path d="M45.6827 11.7868C45.6725 11.7821 45.676 11.7861 45.6827 11.7868" stroke="#AFCAF6" stroke-width="3" stroke-linecap="round"/>
<path d="M45.6875 11.7862C45.6895 11.7799 45.6955 11.7852 45.7 11.7862" stroke="#AFCAF6" stroke-width="3" stroke-linecap="round"/>
<path d="M45.7026 11.7805H45.7151" stroke="#AFCAF6" stroke-width="3" stroke-linecap="round"/>
<path d="M45.7134 11.7805C45.7088 11.7763 45.7088 11.7763 45.7134 11.7805" stroke="#AFCAF6" stroke-width="3" stroke-linecap="round"/>
<path d="M45.7249 11.7809C45.7256 11.7747 45.727 11.7764 45.7313 11.7742" stroke="#AFCAF6" stroke-width="3" stroke-linecap="round"/>
<path d="M45.7473 11.7809C45.7491 11.7733 45.754 11.7757 45.7598 11.7742" stroke="#AFCAF6" stroke-width="3" stroke-linecap="round"/>
<path d="M45.7661 11.7742H45.7941" stroke="#AFCAF6" stroke-width="3" stroke-linecap="round"/>
<path d="M45.7922 11.7742H45.8147" stroke="#AFCAF6" stroke-width="3" stroke-linecap="round"/>
<path d="M45.8223 11.7747C45.8237 11.7613 45.8388 11.7719 45.8447 11.7747" stroke="#AFCAF6" stroke-width="3" stroke-linecap="round"/>
<path d="M45.8447 11.775C45.846 11.7644 45.8523 11.7715 45.8572 11.775" stroke="#AFCAF6" stroke-width="3" stroke-linecap="round"/>
<path d="M45.8633 11.7747C45.8648 11.761 45.8803 11.7705 45.8857 11.7747" stroke="#AFCAF6" stroke-width="3" stroke-linecap="round"/>
<path d="M45.8894 11.7743C45.9004 11.7731 45.9059 11.7726 45.9174 11.7743" stroke="#AFCAF6" stroke-width="3" stroke-linecap="round"/>
<path d="M45.9194 11.7742H45.9386" stroke="#AFCAF6" stroke-width="3" stroke-linecap="round"/>
<path d="M45.9419 11.7813C45.9419 11.7635 45.956 11.7748 45.9699 11.7748" stroke="#AFCAF6" stroke-width="3" stroke-linecap="round"/>
<path d="M46.6297 20.6442C46.5709 20.6442 46.4155 20.6141 46.3714 20.6575C46.2634 20.7639 46.0031 20.6697 45.9212 20.8123C45.8573 20.9234 46.1488 20.9398 46.2114 20.9084C46.2846 20.8718 46.4055 20.8604 46.4911 20.8604C46.6799 20.8604 46.8798 20.9056 47.0657 20.9378C47.2846 20.9757 47.5054 20.989 47.7257 21.0272C47.7463 21.0308 47.7609 21.0244 47.7541 20.9965C47.7107 20.8171 47.4504 20.6977 47.324 20.6255C46.8811 20.3726 46.4887 20.2564 45.9994 20.3506C45.9009 20.3696 45.6487 20.4038 45.5894 20.5241C45.5641 20.5755 45.5889 20.6094 45.6273 20.6202" stroke="#AFCAF6" stroke-width="4"/>
<path d="M45.9829 11.7742H46.0053" stroke="#AFCAF6" stroke-width="3" stroke-linecap="round"/>
<path d="M46.0228 11.7749C46.0123 11.7623 46.0378 11.7737 46.0419 11.7749" stroke="#AFCAF6" stroke-width="3" stroke-linecap="round"/>
<path d="M46.0427 11.7742H46.0499" stroke="#AFCAF6" stroke-width="3" stroke-linecap="round"/>
<path d="M46.0652 11.7743C46.0744 11.7732 46.0739 11.7719 46.0843 11.7743" stroke="#AFCAF6" stroke-width="3" stroke-linecap="round"/>
<path d="M46.0913 11.7747C46.0926 11.763 46.1269 11.7683 46.135 11.7683" stroke="#AFCAF6" stroke-width="3" stroke-linecap="round"/>
<path d="M46.1475 11.7682H46.1666" stroke="#AFCAF6" stroke-width="3" stroke-linecap="round"/>
<path d="M46.1736 11.7748C46.1747 11.765 46.1856 11.768 46.1927 11.768" stroke="#AFCAF6" stroke-width="3" stroke-linecap="round"/>
<path d="M46.2036 11.768C46.2042 11.7632 46.2583 11.768 46.2691 11.768" stroke="#AFCAF6" stroke-width="3" stroke-linecap="round"/>
<path d="M46.2859 11.7747C46.2873 11.7631 46.2988 11.7721 46.305 11.7747" stroke="#AFCAF6" stroke-width="3" stroke-linecap="round"/>
<path d="M46.3044 11.7749C46.3058 11.7632 46.3174 11.7722 46.3236 11.7749" stroke="#AFCAF6" stroke-width="3" stroke-linecap="round"/>
<path d="M46.3345 11.775C46.3357 11.7644 46.342 11.7715 46.347 11.775" stroke="#AFCAF6" stroke-width="3" stroke-linecap="round"/>
<path d="M46.3679 11.7746C46.3696 11.7594 46.3951 11.7716 46.4016 11.7746" stroke="#AFCAF6" stroke-width="3" stroke-linecap="round"/>
<path d="M46.4092 11.7747C46.4106 11.7613 46.4257 11.7719 46.4316 11.7747" stroke="#AFCAF6" stroke-width="3" stroke-linecap="round"/>
<path d="M46.4429 11.7741C46.4621 11.7719 46.4719 11.7701 46.492 11.7741" stroke="#AFCAF6" stroke-width="3" stroke-linecap="round"/>
<path d="M46.5176 11.7819V11.7742" stroke="#AFCAF6" stroke-width="3" stroke-linecap="round"/>
<path d="M46.5513 11.7805H46.5638" stroke="#AFCAF6" stroke-width="3" stroke-linecap="round"/>
<path d="M46.5886 11.781C46.5987 11.7706 46.6103 11.7779 46.6223 11.781" stroke="#AFCAF6" stroke-width="3" stroke-linecap="round"/>
<path d="M46.6448 11.781C46.6461 11.7701 46.6576 11.7788 46.6639 11.781" stroke="#AFCAF6" stroke-width="3" stroke-linecap="round"/>
<path d="M46.6633 11.7809C46.6649 11.7666 46.6856 11.7764 46.6914 11.7809" stroke="#AFCAF6" stroke-width="3" stroke-linecap="round"/>
<path d="M46.7046 11.7808C46.7133 11.7719 46.7183 11.7741 46.727 11.7808" stroke="#AFCAF6" stroke-width="3" stroke-linecap="round"/>
<path d="M46.7493 11.781C46.7505 11.7693 46.7849 11.7747 46.7929 11.7747" stroke="#AFCAF6" stroke-width="3" stroke-linecap="round"/>
<path d="M46.8279 11.7747C46.8371 11.7747 46.8462 11.7779 46.8503 11.7682" stroke="#AFCAF6" stroke-width="3" stroke-linecap="round"/>
<path d="M46.8765 11.7685C46.888 11.7566 46.8943 11.7661 46.9045 11.7751" stroke="#AFCAF6" stroke-width="3" stroke-linecap="round"/>
<path d="M46.9102 11.7744C46.9289 11.7744 46.9461 11.7717 46.9647 11.7681" stroke="#AFCAF6" stroke-width="3" stroke-linecap="round"/>
<path d="M45.6277 20.6204C45.6344 20.6882 45.6579 20.7793 45.6715 20.8486C45.696 20.9726 45.6989 20.9086 45.7556 20.9086C45.9547 20.9086 46.1538 20.9086 46.3528 20.9086C46.4743 20.9086 46.5919 20.9566 46.7154 20.9566C46.8165 20.9566 46.9176 20.9566 47.0187 20.9566C47.096 20.9566 47.1489 20.9792 47.2178 21.0154C47.2818 21.049 47.3718 21.0253 47.4405 21.0287C47.6694 21.0399 47.9016 21.1405 48.123 21.1968" stroke="#AFCAF6" stroke-width="4"/>
<path d="M46.9422 12.2694L46.9326 12.2594" stroke="#AFCAF6" stroke-width="3" stroke-linecap="round"/>
<path d="M46.9551 12.2256C46.9482 12.2105 46.9499 12.2084 46.9639 12.1989" stroke="#AFCAF6" stroke-width="3" stroke-linecap="round"/>
<path d="M46.9814 12.165C46.9799 12.1493 46.9697 12.1382 46.9901 12.1382" stroke="#AFCAF6" stroke-width="3" stroke-linecap="round"/>
<path d="M46.9978 12.1218C46.9956 12.1019 46.9829 12.101 47.0065 12.095" stroke="#AFCAF6" stroke-width="3" stroke-linecap="round"/>
<path d="M47.0072 12.061C47.0026 12.05 47.0023 12.0443 47.0072 12.0342" stroke="#AFCAF6" stroke-width="3" stroke-linecap="round"/>
<path d="M47.0222 12.0262C47.0231 12.0178 47.0266 12.015 47.031 12.0083" stroke="#AFCAF6" stroke-width="3" stroke-linecap="round"/>
<path d="M47.4485 11.8811C47.451 11.8703 47.458 11.8738 47.4664 11.8716" stroke="#AFCAF6" stroke-width="3" stroke-linecap="round"/>
<path d="M47.0644 11.9997C47.0568 11.9898 47.0972 11.9669 47.1029 11.9478" stroke="#AFCAF6" stroke-width="3" stroke-linecap="round"/>
<path d="M47.0965 11.9487C47.0845 11.947 47.0804 11.9392 47.0965 11.9392" stroke="#AFCAF6" stroke-width="3" stroke-linecap="round"/>
<path d="M47.0908 11.94C47.075 11.9379 47.0821 11.9258 47.0998 11.9305" stroke="#AFCAF6" stroke-width="3" stroke-linecap="round"/>
<path d="M47.0856 11.9137C47.0768 11.9035 47.0858 11.9002 47.0944 11.8959" stroke="#AFCAF6" stroke-width="3" stroke-linecap="round"/>
<path d="M47.0932 11.8965C47.0794 11.8948 47.0886 11.8857 47.0932 11.8787" stroke="#AFCAF6" stroke-width="3" stroke-linecap="round"/>
<path d="M47.0819 11.8706C47.0642 11.8706 47.0639 11.8671 47.0732 11.8528" stroke="#AFCAF6" stroke-width="3" stroke-linecap="round"/>
<path d="M47.0548 11.8533C47.0423 11.8519 47.0408 11.8461 47.0374 11.8354" stroke="#AFCAF6" stroke-width="3" stroke-linecap="round"/>
<path d="M47.0319 11.828C47.0201 11.8214 47.0224 11.8221 47.0224 11.818" stroke="#AFCAF6" stroke-width="3" stroke-linecap="round"/>
<path d="M47.0298 11.8188C47.0311 11.8076 47.0388 11.8093 47.0477 11.8093" stroke="#AFCAF6" stroke-width="3" stroke-linecap="round"/>
<path d="M47.0486 11.81L47.0665 11.8005" stroke="#AFCAF6" stroke-width="3" stroke-linecap="round"/>
<path d="M47.0486 11.8005H47.0723" stroke="#AFCAF6" stroke-width="3" stroke-linecap="round"/>
<path d="M47.0739 11.8016C47.0655 11.8006 47.0626 11.7968 47.0559 11.7921" stroke="#AFCAF6" stroke-width="3" stroke-linecap="round"/>
<path d="M47.0408 11.7929C47.0293 11.7922 47.0194 11.7903 47.032 11.7834" stroke="#AFCAF6" stroke-width="3" stroke-linecap="round"/>
<path d="M47.0312 11.7832H47.0222" stroke="#AFCAF6" stroke-width="3" stroke-linecap="round"/>
<path d="M47.0155 11.7847C47.0081 11.7758 47.011 11.7794 47.0155 11.7747" stroke="#AFCAF6" stroke-width="3" stroke-linecap="round"/>
<path d="M47.0222 11.7743C47.0235 11.7664 47.0264 11.7721 47.0312 11.7743" stroke="#AFCAF6" stroke-width="3" stroke-linecap="round"/>
<path d="M45.7514 20.8881C45.7486 20.9221 45.7318 20.9503 45.7193 20.9784C45.7048 21.0109 45.6841 21.0029 45.6537 21.0029C45.6264 21.0029 45.6301 20.9952 45.6603 20.9885C45.7016 20.9794 45.7423 20.9705 45.7835 20.9625C45.8634 20.9468 45.9479 20.9544 46.0288 20.955C46.0764 20.9554 46.1043 20.9837 46.1468 20.9837C46.2749 20.9837 46.4057 20.9918 46.5347 20.9933C46.6187 20.9942 46.7023 21.0029 46.7866 21.0029C46.8687 21.0029 46.9523 20.9973 47.0334 21.013C47.291 21.0627 47.556 21.0087 47.8153 21.0411" stroke="#AFCAF6" stroke-width="4"/>
<path d="M47.0635 11.7665C47.0652 11.7504 47.0989 11.7576 47.1096 11.7576" stroke="#AFCAF6" stroke-width="3" stroke-linecap="round"/>
<path d="M47.1157 11.7666C47.1175 11.7516 47.1266 11.7616 47.1337 11.7666" stroke="#AFCAF6" stroke-width="3" stroke-linecap="round"/>
<path d="M47.1407 11.7658C47.1241 11.7638 47.1449 11.761 47.1572 11.7658" stroke="#AFCAF6" stroke-width="3" stroke-linecap="round"/>
<path d="M47.1755 11.7751C47.1771 11.7604 47.1975 11.7659 47.2071 11.7659" stroke="#AFCAF6" stroke-width="3" stroke-linecap="round"/>
<path d="M47.2205 11.7752C47.2221 11.7602 47.2425 11.766 47.252 11.766" stroke="#AFCAF6" stroke-width="3" stroke-linecap="round"/>
<path d="M47.2578 11.7657C47.274 11.7657 47.3241 11.76 47.327 11.7657" stroke="#AFCAF6" stroke-width="3" stroke-linecap="round"/>
<path d="M47.3364 11.7666C47.3228 11.7501 47.3486 11.7641 47.3544 11.7666" stroke="#AFCAF6" stroke-width="3" stroke-linecap="round"/>
<path d="M47.355 11.7662C47.3568 11.7496 47.4244 11.7662 47.4395 11.7662" stroke="#AFCAF6" stroke-width="3" stroke-linecap="round"/>
<path d="M47.4373 11.7747C47.4461 11.7757 47.4528 11.78 47.4609 11.7838" stroke="#AFCAF6" stroke-width="3" stroke-linecap="round"/>
<path d="M47.886 11.8447C47.8884 11.8015 47.9169 11.8237 47.9475 11.8269" stroke="#AFCAF6" stroke-width="3" stroke-linecap="round"/>
<path d="M46.1677 20.2043C46.1356 20.2043 46.1395 20.2116 46.1579 20.2374" stroke="#AFCAF6" stroke-width="3" stroke-linecap="round"/>
<path d="M45.7324 16.5948V17.8339" stroke="#AFCAF6" stroke-width="4"/>
<path d="M46.1493 20.3257C46.1124 20.3274 46.1247 20.3407 46.1395 20.3698" stroke="#AFCAF6" stroke-width="3" stroke-linecap="round"/>
<path d="M46.1174 20.4028H46.1284" stroke="#AFCAF6" stroke-width="3" stroke-linecap="round"/>
<path d="M46.132 20.4363C46.1125 20.4378 46.1242 20.4397 46.132 20.4484" stroke="#AFCAF6" stroke-width="3" stroke-linecap="round"/>
<path d="M46.1218 20.4801C46.1005 20.4904 46.0886 20.4878 46.1107 20.5029" stroke="#AFCAF6" stroke-width="3" stroke-linecap="round"/>
<path d="M46.0836 20.5572C46.0678 20.5572 46.0658 20.5551 46.0724 20.5693" stroke="#AFCAF6" stroke-width="3" stroke-linecap="round"/>
<path d="M46.0221 20.6237C46.0017 20.6237 45.989 20.621 45.9829 20.6351" stroke="#AFCAF6" stroke-width="3" stroke-linecap="round"/>
<path d="M45.9475 20.6676C45.9271 20.6676 45.9331 20.6693 45.9475 20.6797" stroke="#AFCAF6" stroke-width="3" stroke-linecap="round"/>
<path d="M45.949 20.7011C45.9383 20.6877 45.9557 20.6996 45.9602 20.7011" stroke="#AFCAF6" stroke-width="3" stroke-linecap="round"/>
<path d="M45.9638 20.7229C45.9421 20.7229 45.9468 20.7228 45.9638 20.735" stroke="#AFCAF6" stroke-width="3" stroke-linecap="round"/>
<path d="M45.9713 20.7778C45.9496 20.7778 45.9544 20.7777 45.9713 20.7899" stroke="#AFCAF6" stroke-width="3" stroke-linecap="round"/>
<path d="M45.9736 20.8219C45.9533 20.8219 45.9591 20.8235 45.9736 20.834" stroke="#AFCAF6" stroke-width="3" stroke-linecap="round"/>
<path d="M45.9706 20.8659C45.9485 20.8591 45.9563 20.8645 45.9706 20.8659" stroke="#AFCAF6" stroke-width="3" stroke-linecap="round"/>
<path d="M45.9807 20.8887C45.9687 20.8762 45.98 20.8845 45.9921 20.8887" stroke="#AFCAF6" stroke-width="3" stroke-linecap="round"/>
<path d="M45.9909 20.8998C45.9685 20.8836 45.9726 20.8976 45.9909 20.8998" stroke="#AFCAF6" stroke-width="3" stroke-linecap="round"/>
<path d="M45.9905 20.899V20.9118" stroke="#AFCAF6" stroke-width="3" stroke-linecap="round"/>
<path d="M45.9919 20.9102C45.9733 20.9115 45.9807 20.9108 45.9807 20.9222" stroke="#AFCAF6" stroke-width="3" stroke-linecap="round"/>
<path d="M45.9924 20.9434C45.9721 20.9434 45.9779 20.945 45.9924 20.9554" stroke="#AFCAF6" stroke-width="3" stroke-linecap="round"/>
<path d="M45.9829 20.9543H45.9939" stroke="#AFCAF6" stroke-width="3" stroke-linecap="round"/>
<path d="M45.9919 20.9653C45.9733 20.9667 45.9807 20.966 45.9807 20.9774" stroke="#AFCAF6" stroke-width="3" stroke-linecap="round"/>
<path d="M45.9817 21.0108C45.9736 21.0021 45.9736 21.0021 45.9817 21.0108" stroke="#AFCAF6" stroke-width="3" stroke-linecap="round"/>
<path d="M45.9829 21.0203H46.0058" stroke="#AFCAF6" stroke-width="3" stroke-linecap="round"/>
<path d="M46.0131 21.0427C45.9923 21.0403 45.9931 21.0268 46.0131 21.054" stroke="#AFCAF6" stroke-width="3" stroke-linecap="round"/>
<path d="M46.0127 21.0658C46.0114 21.0547 46.0091 21.0578 46.0017 21.0537" stroke="#AFCAF6" stroke-width="3" stroke-linecap="round"/>
<path d="M45.8273 21.0432C45.8179 21.0397 45.7762 21.0315 45.8072 21.0315" stroke="#AFCAF6" stroke-width="3" stroke-linecap="round"/>
<path d="M45.8 21.044C45.773 21.0211 45.7803 21.0266 45.7886 21.044" stroke="#AFCAF6" stroke-width="3" stroke-linecap="round"/>
<path d="M45.7807 21.0315L45.7698 21.0436" stroke="#AFCAF6" stroke-width="3" stroke-linecap="round"/>
<path d="M45.7685 21.0426C45.7567 21.0444 45.7653 21.0486 45.7685 21.0554" stroke="#AFCAF6" stroke-width="3" stroke-linecap="round"/>
<path d="M45.9811 20.7124C45.9649 20.6721 45.9873 20.6849 46.0105 20.7011" stroke="#AFCAF6" stroke-width="3" stroke-linecap="round"/>
<path d="M46.0025 20.7336C45.9806 20.7365 46.0082 20.7872 46.0131 20.7998" stroke="#AFCAF6" stroke-width="3" stroke-linecap="round"/>
<path d="M46.0044 20.855C45.9661 20.8589 45.9873 20.8704 46.0044 20.8881" stroke="#AFCAF6" stroke-width="3" stroke-linecap="round"/>
<path d="M45.9904 20.91C45.9587 20.91 45.97 20.905 45.97 20.9328" stroke="#AFCAF6" stroke-width="3" stroke-linecap="round"/>
<path d="M45.9341 20.9547C45.9243 20.9453 45.9283 20.949 45.9231 20.9547" stroke="#AFCAF6" stroke-width="3" stroke-linecap="round"/>
<path d="M45.9132 20.9549C45.8966 20.9537 45.8747 20.9383 45.9032 20.9549" stroke="#AFCAF6" stroke-width="3" stroke-linecap="round"/>
<path d="M45.9155 20.9654C45.9155 20.9501 45.9155 20.973 45.9155 20.9768" stroke="#AFCAF6" stroke-width="3" stroke-linecap="round"/>
<path d="M45.9045 20.9873H45.9347" stroke="#AFCAF6" stroke-width="3" stroke-linecap="round"/>
<path d="M45.936 21.0096C45.9185 21.0119 45.9302 21.0234 45.936 21.0324" stroke="#AFCAF6" stroke-width="3" stroke-linecap="round"/>
<path d="M45.9343 21.0425H45.9453" stroke="#AFCAF6" stroke-width="3" stroke-linecap="round"/>
<path d="M45.9453 21.0546L45.9343 21.0425" stroke="#AFCAF6" stroke-width="3" stroke-linecap="round"/>
<path d="M45.8832 21.0433C45.8712 21.0367 45.8336 21.0204 45.8631 21.0433" stroke="#AFCAF6" stroke-width="3" stroke-linecap="round"/>
<path d="M45.8581 21.0438C45.85 21.035 45.85 21.035 45.8581 21.0438" stroke="#AFCAF6" stroke-width="3" stroke-linecap="round"/>
<path d="M45.8485 21.032C45.8335 21.032 45.825 21.0356 45.8184 21.0203" stroke="#AFCAF6" stroke-width="3" stroke-linecap="round"/>
<path d="M45.8014 21.0213C45.781 21.0213 45.7541 21.0307 45.7813 21.0096" stroke="#AFCAF6" stroke-width="3" stroke-linecap="round"/>
<path d="M45.7886 21.0096C45.8061 21.0122 45.7997 21.0244 45.8188 21.0096" stroke="#AFCAF6" stroke-width="3" stroke-linecap="round"/>
<path d="M45.8372 21.0203H45.9057" stroke="#AFCAF6" stroke-width="3" stroke-linecap="round"/>
<path d="M45.9231 21.0203C45.9246 21.0321 45.9282 21.0235 45.9341 21.0203" stroke="#AFCAF6" stroke-width="3" stroke-linecap="round"/>
<path d="M45.968 21.0208C45.9701 21.0015 46.0041 21.0094 46.017 21.0094" stroke="#AFCAF6" stroke-width="3" stroke-linecap="round"/>
<path d="M46.0354 21.0209C46.0544 21.0209 46.0665 21.0178 46.0844 21.0095" stroke="#AFCAF6" stroke-width="3" stroke-linecap="round"/>
<path d="M46.1008 21.0096C46.0858 21.0277 46.1049 21.0148 46.1122 21.0096" stroke="#AFCAF6" stroke-width="3" stroke-linecap="round"/>
<path d="M46.1314 21.009C46.1108 21.0065 46.1451 21.0028 46.1608 21.009" stroke="#AFCAF6" stroke-width="3" stroke-linecap="round"/>
<path d="M46.1587 21.0096C46.1787 21.0096 46.2015 21.0213 46.1688 21.0213" stroke="#AFCAF6" stroke-width="3" stroke-linecap="round"/>
<path d="M46.1587 21.0206C46.1587 21.0053 46.1587 21.0282 46.1587 21.032" stroke="#AFCAF6" stroke-width="3" stroke-linecap="round"/>
<path d="M46.125 21.0425H46.1479" stroke="#AFCAF6" stroke-width="3" stroke-linecap="round"/>
<path d="M46.1218 21.0426H46.0989" stroke="#AFCAF6" stroke-width="3" stroke-linecap="round"/>
<path d="M46.0017 21.0425H46.08" stroke="#AFCAF6" stroke-width="3" stroke-linecap="round"/>
<path d="M45.9155 21.0426H45.9841" stroke="#AFCAF6" stroke-width="3" stroke-linecap="round"/>
<path d="M45.8945 21.0426C45.876 21.0426 45.8472 21.0375 45.8259 21.054" stroke="#AFCAF6" stroke-width="3" stroke-linecap="round"/>
<path d="M45.7996 21.0537C45.7705 21.0537 45.743 21.0647 45.7163 21.0647C45.6928 21.0647 45.6546 21.07 45.6918 21.0868" stroke="#AFCAF6" stroke-width="3" stroke-linecap="round"/>
<path d="M45.706 21.0878L45.6951 21.0757" stroke="#AFCAF6" stroke-width="3" stroke-linecap="round"/>
<path d="M45.74 21.0875C45.7422 21.0684 45.7539 21.0811 45.7629 21.0875" stroke="#AFCAF6" stroke-width="3" stroke-linecap="round"/>
<path d="M45.8184 21.0648C45.8425 21.063 45.8418 21.0529 45.8673 21.0648" stroke="#AFCAF6" stroke-width="3" stroke-linecap="round"/>
<path d="M45.8857 21.054C45.9045 21.054 45.9141 21.0426 45.9347 21.0426" stroke="#AFCAF6" stroke-width="3" stroke-linecap="round"/>
<path d="M45.9456 21.0426H45.9684" stroke="#AFCAF6" stroke-width="3" stroke-linecap="round"/>
<path d="M46.0017 21.0429C46.0306 21.0429 46.0655 21.0503 46.0898 21.0315" stroke="#AFCAF6" stroke-width="3" stroke-linecap="round"/>
<path d="M50.1328 20.1129C50.1694 20.1129 50.1886 20.1116 50.2209 20.0902" stroke="#AFCAF6" stroke-width="3" stroke-linecap="round"/>
<path d="M44.3467 21.6619C44.3139 21.6694 44.1423 21.8006 44.1483 21.8376C44.1631 21.928 44.3006 21.9052 44.3637 21.9052C44.4942 21.9052 44.5314 21.8051 44.6111 21.7237C44.6575 21.6762 44.7203 21.7181 44.7716 21.6774C44.8318 21.6295 44.9193 21.5785 44.9963 21.5693C45.0449 21.5634 44.9171 21.7159 44.8755 21.7314C44.8246 21.7503 45.1016 21.76 45.1814 21.7237C45.4462 21.6034 45.7214 21.6272 46.0124 21.6272C46.3001 21.6272 46.5727 21.5924 46.8623 21.5924" stroke="black" stroke-linecap="round"/>
<path d="M44.1731 11.1322C44.1686 11.1555 44.0916 11.2716 44.1278 11.248C44.2113 11.1937 44.2775 11.167 44.3771 11.167" stroke="#AFCBF6" stroke-linecap="round"/>
<path d="M44.1075 11.2712C44.0168 11.2712 43.9262 11.2712 43.8355 11.2712C43.8239 11.2712 43.882 11.2598 43.8959 11.2287C43.9501 11.1079 43.9258 11.2576 43.8771 11.3137C43.7386 11.4728 43.9787 11.327 44.0244 11.3137C44.1228 11.2849 44.1852 11.2805 44.2623 11.2017C44.3525 11.1095 44.5082 11.1741 44.6174 11.1245C44.749 11.0647 44.9325 11.0279 45.0763 11.0279C45.7193 11.0279 46.3601 10.9932 46.997 10.9932" stroke="black" stroke-linecap="round"/>
<path d="M46.9558 22.929C46.9558 22.5923 47.0015 22.2876 47.0015 21.9482" stroke="black" stroke-linecap="round"/>
<path d="M46.9774 23.0224C46.8571 23.007 46.9269 22.6621 46.9317 22.5787C46.9376 22.4756 46.9774 22.3772 46.9774 22.2751" stroke="black" stroke-linecap="round"/>
<path d="M47.0083 9.25806C47.0083 9.48619 47.0083 9.71433 47.0083 9.94246C47.0083 10.1362 47.104 10.2359 47.1628 10.4163" stroke="black" stroke-linecap="round"/>
<path d="M47.1635 10.4163C47.1326 10.5745 47.0605 10.8994 47.0605 10.545C47.0605 10.3617 47.0605 10.1784 47.0605 9.99512" stroke="black" stroke-linecap="round"/>
<path d="M44.9779 20.7922C44.9346 20.8144 44.9137 20.8674 44.8666 20.8863C44.7956 20.9149 44.8519 20.957 44.906 20.9694C44.9636 20.9825 45.0633 20.8579 45.1068 20.9341C45.1447 21.0005 45.0598 21.035 45.0158 21.0584C44.9717 21.0818 44.9318 21.1244 44.8804 21.1274C44.8317 21.1302 44.7981 21.1291 44.7514 21.151C44.6779 21.1856 44.5993 21.2187 44.5176 21.226C44.408 21.2357 44.2934 21.2539 44.1854 21.2773C44.1265 21.2901 44.0669 21.2994 44.0082 21.3125C43.9927 21.316 43.8368 21.3707 43.8585 21.3176C43.9049 21.2044 44.0676 21.1722 44.1716 21.1566C44.1938 21.1532 44.3659 21.1187 44.3261 21.1797C44.317 21.1938 44.239 21.2992 44.2159 21.2733C44.1766 21.2293 44.2563 21.1954 44.2868 21.1998" stroke="#AFCBF6" stroke-width="0.1" stroke-linecap="round"/>
<path d="M44.1805 21.2995C44.1622 21.3509 44.0867 21.3539 44.0436 21.3539C43.9711 21.3539 43.9149 21.3885 43.8531 21.4253C43.8253 21.4419 43.818 21.4391 43.8595 21.4334C43.8859 21.4297 43.8991 21.4234 43.9196 21.4082C43.951 21.3848 43.9945 21.4039 44.021 21.381C44.0472 21.3585 44.1234 21.372 44.1234 21.372C44.1234 21.372 44.0763 21.3704 44.053 21.3725C44.032 21.3744 44.0126 21.393 43.9988 21.4082C43.9855 21.4229 43.9432 21.4272 43.9698 21.4102C43.9932 21.3953 44.0215 21.393 44.0475 21.3856C44.1174 21.3658 44.1873 21.3479 44.2582 21.3337C44.3443 21.3165 44.4279 21.3118 44.5127 21.2854C44.6353 21.2473 44.7516 21.2402 44.8775 21.2251C44.9799 21.2127 45.0813 21.1876 45.1836 21.1747C45.2434 21.1672 45.3037 21.1587 45.3608 21.1375C45.3712 21.1336 45.3116 21.1191 45.3086 21.1184C45.2601 21.1062 45.2121 21.1004 45.162 21.1023C45.1401 21.1031 44.8288 21.1284 44.8903 21.1959C44.919 21.2274 44.9703 21.2087 45 21.1923C45.0324 21.1745 45.0747 21.142 45.0143 21.137C44.9644 21.1329 44.79 21.1019 44.7524 21.1526C44.7438 21.1643 44.8282 21.1905 44.8332 21.1918C44.865 21.2006 44.8724 21.1949 44.8981 21.1818" stroke="#AFCBF6" stroke-width="0.1" stroke-linecap="round"/>
<path d="M44.7237 22.3155C44.5896 22.3104 44.461 22.3265 44.331 22.3643C44.278 22.3796 44.2262 22.3973 44.1727 22.4109C44.1558 22.4153 43.9678 22.464 44.0702 22.4488C44.1331 22.4395 44.1955 22.4169 44.2564 22.3985C44.3541 22.369 44.4535 22.3608 44.5532 22.342C44.6513 22.3234 44.7639 22.3128 44.8541 22.2668C44.9552 22.215 45.0618 22.1794 45.1702 22.1464C45.2058 22.1356 45.2465 22.1288 45.2838 22.1288C45.3083 22.1288 45.3013 22.1425 45.3102 22.1599C45.323 22.185 45.5912 22.1572 45.3711 22.1755C45.224 22.1877 45.0765 22.1775 44.9332 22.2201C44.8414 22.2473 44.7536 22.3057 44.6572 22.3145C44.5796 22.3215 44.7379 22.289 44.7546 22.2834C44.8017 22.2676 44.8384 22.2544 44.8881 22.2502" stroke="#AFCBF6" stroke-width="0.1" stroke-linecap="round"/>
<path d="M46.3054 23.3973C46.3054 23.1626 46.358 22.9385 46.4295 22.7166C46.4601 22.6218 46.484 22.5171 46.4866 22.4166C46.4893 22.3115 46.4745 22.5621 46.4723 22.594C46.4681 22.6538 46.461 22.7307 46.4798 22.7886C46.4977 22.8435 46.5167 22.8829 46.5167 22.9421C46.5167 22.9773 46.5221 23.0164 46.5159 23.051C46.5064 23.1044 46.4885 23.2256 46.4564 23.2584" stroke="#AFCBF6" stroke-width="0.1" stroke-linecap="round"/>
<path d="M1.0009 21.77C1.0009 21.6727 0.994448 21.5704 1.01605 21.475C1.02268 21.4458 1.03461 21.4179 1.04291 21.3892C1.0442 21.3847 1.04937 21.3398 1.05392 21.3691C1.06569 21.4447 1.05709 21.5094 1.05082 21.5831C1.04703 21.6277 1.05364 21.5495 1.05392 21.5458C1.0594 21.4722 1.04968 21.4018 1.05186 21.3286C1.05509 21.2201 1.06288 21.1121 1.06288 21.0034" stroke="#AFCBF6" stroke-width="0.1" stroke-linecap="round"/>
<path d="M43.9512 11.8931C43.8951 11.8931 43.841 11.8956 43.7862 11.8818C43.7334 11.8685 43.6848 11.8397 43.6311 11.8314C43.5973 11.8263 43.6573 11.8348 43.6656 11.834C43.7028 11.83 43.739 11.8151 43.7764 11.8138C43.8034 11.8129 43.8306 11.8138 43.8576 11.8138C43.917 11.8138 43.9745 11.7801 44.0325 11.7698C44.091 11.7594 44.1475 11.7459 44.2073 11.737C44.3711 11.7127 44.5223 11.6719 44.6826 11.6326" stroke="#AFCBF6" stroke-width="0.1" stroke-linecap="round"/>
<path d="M43.949 10.6921C43.9303 10.6921 43.7446 10.7198 43.773 10.7488C43.7906 10.7668 43.6897 10.7607 43.6609 10.774C43.5895 10.8068 43.6683 10.7978 43.7089 10.7878C43.7628 10.7745 43.7991 10.7343 43.8548 10.7255C43.9228 10.7148 43.9805 10.6817 44.0512 10.6808C44.0881 10.6803 44.122 10.6825 44.1571 10.6695C44.2433 10.6375 44.1012 10.6925 44.0814 10.6965C44.0236 10.7085 43.8944 10.6945 43.8407 10.7312C43.8089 10.7528 43.9733 10.7135 43.9884 10.7085C44.0813 10.6777 44.1766 10.6595 44.2704 10.6355" stroke="#AFCBF6" stroke-width="0.1" stroke-linecap="round"/>
<path d="M47.5643 9.39404C47.5643 9.60549 47.5185 9.81559 47.5163 10.0269C47.5146 10.1964 47.5277 10.3542 47.5403 10.5216C47.548 10.6234 47.5523 10.723 47.5523 10.8251C47.5523 10.8802 47.5496 11.0453 47.5549 10.9905C47.5624 10.9147 47.566 10.8383 47.5576 10.7625C47.5394 10.5978 47.5414 10.4489 47.5636 10.2848C47.5818 10.1499 47.5954 9.99721 47.5523 9.86494C47.5333 9.80671 47.4649 9.7977 47.483 9.87175C47.4929 9.91207 47.5112 9.95133 47.5217 9.99288C47.5739 10.2007 47.6308 10.4094 47.6921 10.6148C47.6976 10.6333 47.7211 10.7021 47.7107 10.7305C47.6942 10.7758 47.6503 10.6523 47.6395 10.6053C47.6216 10.5273 47.6137 10.4477 47.6029 10.3685C47.5976 10.3298 47.5949 10.3774 47.5942 10.3862C47.5861 10.4893 47.592 10.594 47.5762 10.6965C47.5689 10.7441 47.5525 10.7893 47.5469 10.8374C47.5453 10.8514 47.547 10.9953 47.523 10.9388C47.5029 10.8915 47.4891 10.8418 47.4751 10.7925C47.4597 10.7388 47.5013 10.7551 47.5037 10.7081C47.507 10.6419 47.5043 10.575 47.5043 10.5087" stroke="#AFCBF6" stroke-width="0.1" stroke-linecap="round"/>
</svg>
