<svg width="40" height="40" viewBox="0 0 40 40" fill="none" xmlns="http://www.w3.org/2000/svg">
<rect width="40" height="40" fill="white"/>
<path d="M12.2509 29.269C12.6723 29.269 13.1256 29.3564 13.5429 29.498C13.5164 29.5626 13.4902 29.6277 13.4645 29.6931C13.3876 29.8885 13.3129 30.0911 13.243 30.3024L12.2087 30.3373L10.0135 30.3373C10.0395 30.3072 10.0661 30.2776 10.0931 30.2485C10.6986 29.5971 11.4792 29.269 12.2509 29.269Z" fill="black" stroke="black" stroke-width="5"/>
<rect x="0.75" y="5.19504" width="38.5" height="34.055" rx="8.25" fill="#FFFDFD" stroke="black" stroke-width="1.5"/>
<rect x="6.83854" y="32.3075" width="28.0342" height="0.341875" rx="0.170938" fill="#D1D1D1" stroke="black" stroke-width="0.341875"/>
<mask id="path-4-inside-1_32_147" fill="white">
<path d="M27.3512 32.7332C27.3512 30.9878 26.6758 29.3138 25.4736 28.0796C24.2715 26.8454 22.641 26.1521 20.9409 26.1521C19.2408 26.1521 17.6103 26.8454 16.4082 28.0796C15.206 29.3138 14.5306 30.9878 14.5306 32.7332L20.9409 32.7332H27.3512Z"/>
</mask>
<path d="M27.3512 32.7332C27.3512 30.9878 26.6758 29.3138 25.4736 28.0796C24.2715 26.8454 22.641 26.1521 20.9409 26.1521C19.2408 26.1521 17.6103 26.8454 16.4082 28.0796C15.206 29.3138 14.5306 30.9878 14.5306 32.7332L20.9409 32.7332H27.3512Z" fill="black" stroke="black" stroke-width="2" mask="url(#path-4-inside-1_32_147)"/>
<path d="M23.6032 21.7083C23.6032 23.1315 22.4495 24.2852 21.0263 24.2852C19.6031 24.2852 18.4493 23.1315 18.4493 21.7083C18.4493 20.2852 19.6031 19.1315 21.0263 19.1315C22.4495 19.1315 23.6032 20.2852 23.6032 21.7083Z" fill="black" stroke="black"/>
<path d="M30.6113 23.9315C30.6113 24.8826 29.8403 25.6537 28.8891 25.6537C27.9379 25.6537 27.1669 24.8826 27.1669 23.9315C27.1669 22.9804 27.9379 22.2093 28.8891 22.2093C29.8403 22.2093 30.6113 22.9804 30.6113 23.9315Z" fill="black" stroke="black"/>
<path d="M13.2778 23.5555C13.2778 24.5066 12.5068 25.2777 11.5556 25.2777C10.6044 25.2777 9.83337 24.5066 9.83337 23.5555C9.83337 22.6044 10.6044 21.8333 11.5556 21.8333C12.5068 21.8333 13.2778 22.6044 13.2778 23.5555Z" fill="black" stroke="black"/>
<rect x="29.8096" y="0.75" width="2.60256" height="7.2178" rx="1.30128" fill="white" stroke="black" stroke-width="1.5"/>
<rect x="8.27185" y="0.75" width="2.60256" height="7.2178" rx="1.30128" fill="white" stroke="black" stroke-width="1.5"/>
<path d="M1.17639 11.7646L38.8235 11.7706" stroke="black" stroke-width="1.5"/>
<path d="M7.18738 32.2349C7.29586 30.9315 7.82562 29.709 8.68506 28.7844C9.65247 27.7438 10.9564 27.1667 12.3077 27.1667C13.5952 27.1667 15.1625 27.6843 16.1361 28.5664C16.0293 28.8255 15.9206 29.0726 15.8125 29.3168C15.8027 29.3389 15.7929 29.361 15.7831 29.383C15.6447 29.6955 15.5065 30.0076 15.3824 30.323C15.1615 30.8843 14.9804 31.468 14.8969 32.1473L12.2992 32.2349L7.18738 32.2349Z" fill="black" stroke="black"/>
<path d="M34.6935 32.4051C34.585 31.1017 34.0553 29.8791 33.1959 28.9546C32.2286 27.9139 30.9247 27.3368 29.5736 27.3368C28.2862 27.3368 26.7189 27.8545 25.7454 28.7365C25.8522 28.9956 25.9609 29.2427 26.0691 29.4869C26.0788 29.509 26.0886 29.5311 26.0984 29.5532C26.2368 29.8657 26.375 30.1778 26.4991 30.4932C26.7199 31.0544 26.9011 31.6382 26.9845 32.3175L29.582 32.4051L34.6935 32.4051Z" fill="black" stroke="black"/>
</svg>
