<svg width="50" height="37" viewBox="0 0 50 37" fill="none" xmlns="http://www.w3.org/2000/svg">
<path d="M3.3493 15.8459L0.578898 3.56599C0.287873 2.27601 1.30653 1.06376 2.62735 1.12822L44.6511 3.17911C47.0345 3.29543 48.7866 5.45936 48.4045 7.81485L46.5956 18.9656L34.8782 23.5999L40.0599 36L23.1608 28.2341L25.3244 18.9656H7.25123C5.38126 18.9656 3.76083 17.6701 3.3493 15.8459Z" fill="white"/>
<path d="M46.5956 18.9656L34.8782 23.5999M46.5956 18.9656H25.3244M46.5956 18.9656L48.4045 7.81485C48.7866 5.45936 47.0345 3.29543 44.6511 3.17911L2.62735 1.12822C1.30653 1.06376 0.287873 2.27601 0.578898 3.56599L3.3493 15.8459C3.76083 17.6701 5.38126 18.9656 7.25123 18.9656H25.3244M23.1608 28.2341L40.0599 36L34.8782 23.5999M23.1608 28.2341L34.8782 23.5999M23.1608 28.2341L25.3244 18.9656" stroke="black"/>
<rect width="39.6432" height="0.530561" transform="matrix(0.999299 0.0374517 -0.0745906 0.997214 4.83203 5.66638)" fill="black"/>
<rect width="39.6432" height="0.530561" transform="matrix(0.999299 0.0374517 -0.0745906 0.997214 4.83203 9.16638)" fill="black"/>
<rect width="39.6432" height="0.530561" transform="matrix(0.999299 0.0374517 -0.0745906 0.997214 4.83203 12.6664)" fill="black"/>
</svg>
