<svg width="42" height="43" viewBox="0 0 42 43" fill="none" xmlns="http://www.w3.org/2000/svg">
<line x1="20.5664" y1="21.5323" x2="20.5664" y2="35.2523" stroke="black"/>
<line y1="-0.5" x2="17.1496" y2="-0.5" transform="matrix(-0.708313 0.705899 -0.708313 -0.705899 36.1074 25.2456)" stroke="#010101"/>
<line x1="25.8481" y1="22.0384" x2="35.0785" y2="23.5062" stroke="black"/>
<line y1="-0.5" x2="12.0342" y2="-0.5" transform="matrix(0.942105 0.335319 -0.337356 0.941377 8.09766 32.8314)" stroke="#D9D9D9"/>
<line y1="-0.5" x2="21.7508" y2="-0.5" transform="matrix(-0.521243 -0.853408 0.854986 -0.518652 20.2461 34.4455)" stroke="black"/>
<line y1="-0.5" x2="25.0965" y2="-0.5" transform="matrix(0.548559 -0.836112 0.837824 0.545941 7.28906 30.41)" stroke="black"/>
<line y1="-0.5" x2="11.9477" y2="-0.5" transform="matrix(0.881145 0.472846 -0.475356 0.879794 9.7168 15.8827)" stroke="black"/>
<line y1="-0.5" x2="24.737" y2="-0.5" transform="matrix(0.622005 0.783013 -0.785076 0.6194 22.0918 5.3913)" stroke="black"/>
<line y1="-0.5" x2="13.7565" y2="-0.5" transform="matrix(0.883019 -0.469338 0.47184 0.881684 9.7168 12.6545)" stroke="black"/>
<path d="M25.9812 6.05293C25.9812 9.11812 23.4875 11.6059 20.4076 11.6059C17.3278 11.6059 14.834 9.11812 14.834 6.05293C14.834 2.98774 17.3278 0.5 20.4076 0.5C23.4875 0.5 25.9812 2.98774 25.9812 6.05293Z" fill="white" stroke="black"/>
<ellipse cx="35.9271" cy="23.1643" rx="6.07363" ry="6.05293" fill="black"/>
<path d="M25.9812 36.9471C25.9812 40.0123 23.4875 42.5 20.4076 42.5C17.3278 42.5 14.834 40.0123 14.834 36.9471C14.834 33.8819 17.3278 31.3941 20.4076 31.3941C23.4875 31.3941 25.9812 33.8819 25.9812 36.9471Z" fill="white" stroke="black"/>
<path d="M11.6473 30.8134C11.6473 33.8786 9.15347 36.3663 6.07363 36.3663C2.99379 36.3663 0.5 33.8786 0.5 30.8134C0.5 27.7482 2.99379 25.2605 6.07363 25.2605C9.15347 25.2605 11.6473 27.7482 11.6473 30.8134Z" fill="white" stroke="black"/>
<ellipse cx="6.07363" cy="13.0583" rx="6.07363" ry="6.05293" fill="black"/>
<path d="M25.9812 21.0319C25.9812 24.0971 23.4875 26.5848 20.4076 26.5848C17.3278 26.5848 14.834 24.0971 14.834 21.0319C14.834 17.9667 17.3278 15.479 20.4076 15.479C23.4875 15.479 25.9812 17.9667 25.9812 21.0319Z" fill="white" stroke="black"/>
<path d="M20.5529 0.808258C21.9489 0.808258 23.2878 1.36095 24.275 2.34474C25.2621 3.32853 25.8167 4.66284 25.8167 6.05413C25.8167 7.44542 25.2621 8.77973 24.275 9.76352C23.2878 10.7473 21.9489 11.3 20.5529 11.3L20.5529 6.05413V0.808258Z" fill="black"/>
<path d="M20.2127 42.1917C18.8167 42.1917 17.4778 41.639 16.4907 40.6553C15.5035 39.6715 14.9489 38.3372 14.9489 36.9459C14.9489 35.5546 15.5035 34.2203 16.4907 33.2365C17.4778 32.2527 18.8167 31.7 20.2127 31.7L20.2127 36.9459V42.1917Z" fill="black"/>
</svg>
